<svg xmlns="http://www.w3.org/2000/svg" xmlns:xlink="http://www.w3.org/1999/xlink" contentStyleType="text/css" data-diagram-type="ACTIVITY" height="1034px" preserveAspectRatio="none" style="width:523px;height:1034px;background:#FFFFFF;" version="1.1" viewBox="0 0 523 1034" width="523px" zoomAndPan="magnify"><?plantuml 1.2026.3beta4?><defs/><g><ellipse cx="292.1729" cy="25" fill="#222222" rx="10" ry="10" style="stroke:#222222;stroke-width:1;"/><rect fill="#F1F1F1" height="33.9688" rx="12.5" ry="12.5" style="stroke:#181818;stroke-width:0.5;" width="193.7363" x="195.3047" y="55"/><text fill="#000000" font-family="sans-serif" font-size="12" lengthAdjust="spacing" textLength="173.7363" x="205.3047" y="76.1387">Foydalanuvchi ilovani ochadi</text><rect fill="#F1F1F1" height="33.9688" rx="12.5" ry="12.5" style="stroke:#181818;stroke-width:0.5;" width="184.5195" x="199.9131" y="108.9688"/><text fill="#000000" font-family="sans-serif" font-size="12" lengthAdjust="spacing" textLength="164.5195" x="209.9131" y="130.1074">Maktablar ro'yxatini ko'radi</text><rect fill="#F1F1F1" height="33.9688" rx="12.5" ry="12.5" style="stroke:#181818;stroke-width:0.5;" width="173.7969" x="205.2744" y="162.9375"/><text fill="#000000" font-family="sans-serif" font-size="12" lengthAdjust="spacing" textLength="153.7969" x="215.2744" y="184.0762">Kerakli maktabni tanlaydi</text><rect fill="#F1F1F1" height="33.9688" rx="12.5" ry="12.5" style="stroke:#181818;stroke-width:0.5;" width="183.9336" x="200.2061" y="216.9063"/><text fill="#000000" font-family="sans-serif" font-size="12" lengthAdjust="spacing" textLength="163.9336" x="210.2061" y="238.0449">Maktab tafsilotlarini ko'radi</text><rect fill="#F1F1F1" height="33.9688" rx="12.5" ry="12.5" style="stroke:#181818;stroke-width:0.5;" width="246.6406" x="168.8525" y="270.875"/><text fill="#000000" font-family="sans-serif" font-size="12" lengthAdjust="spacing" textLength="226.6406" x="178.8525" y="292.0137">Va'da qilingan ishlar ro'yxatini ko'radi</text><rect fill="#F1F1F1" height="33.9688" rx="12.5" ry="12.5" style="stroke:#181818;stroke-width:0.5;" width="226.625" x="178.8604" y="324.8438"/><text fill="#000000" font-family="sans-serif" font-size="12" lengthAdjust="spacing" textLength="206.625" x="188.8604" y="345.9824">"Buni tekshirish" tugmasini bosadi</text><rect fill="#F1F1F1" height="33.9688" rx="12.5" ry="12.5" style="stroke:#181818;stroke-width:0.5;" width="114.916" x="234.7148" y="378.8125"/><text fill="#000000" font-family="sans-serif" font-size="12" lengthAdjust="spacing" textLength="94.916" x="244.7148" y="399.9512">Holatni tanlaydi</text><polygon fill="#F1F1F1" points="274.698,432.7813,309.6477,432.7813,321.6477,444.7813,309.6477,456.7813,274.698,456.7813,262.698,444.7813,274.698,432.7813" style="stroke:#181818;stroke-width:0.5;"/><text fill="#000000" font-family="sans-serif" font-size="11" lengthAdjust="spacing" textLength="34.9497" x="274.698" y="448.5894">Holat?</text><text fill="#000000" font-family="sans-serif" font-size="11" lengthAdjust="spacing" textLength="44.7573" x="217.9407" y="442.187">Bajarildi</text><text fill="#000000" font-family="sans-serif" font-size="11" lengthAdjust="spacing" textLength="51.3638" x="321.6477" y="442.187">Muammo</text><rect fill="#F1F1F1" height="33.9688" rx="12.5" ry="12.5" style="stroke:#181818;stroke-width:0.5;" width="167.7617" x="98.9351" y="466.7813"/><text fill="#000000" font-family="sans-serif" font-size="12" lengthAdjust="spacing" textLength="147.7617" x="108.9351" y="487.9199">Surat yuklaydi yoki oladi</text><rect fill="#F1F1F1" height="33.9688" rx="12.5" ry="12.5" style="stroke:#181818;stroke-width:0.5;" width="123.5234" x="121.0542" y="520.75"/><text fill="#000000" font-family="sans-serif" font-size="12" lengthAdjust="spacing" textLength="103.5234" x="131.0542" y="541.8887">Ijobiy izoh yozadi</text><rect fill="#F1F1F1" height="33.9688" rx="12.5" ry="12.5" style="stroke:#181818;stroke-width:0.5;" width="199.7305" x="82.9507" y="574.7188"/><text fill="#000000" font-family="sans-serif" font-size="12" lengthAdjust="spacing" textLength="179.7305" x="92.9507" y="595.8574">Tekshiruv statusi = BAJARILDI</text><rect fill="#F1F1F1" height="33.9688" rx="12.5" ry="12.5" style="stroke:#181818;stroke-width:0.5;" width="167.7617" x="317.6489" y="466.7813"/><text fill="#000000" font-family="sans-serif" font-size="12" lengthAdjust="spacing" textLength="147.7617" x="327.6489" y="487.9199">Surat yuklaydi yoki oladi</text><rect fill="#F1F1F1" height="33.9688" rx="12.5" ry="12.5" style="stroke:#181818;stroke-width:0.5;" width="191.9844" x="305.5376" y="520.75"/><text fill="#000000" font-family="sans-serif" font-size="12" lengthAdjust="spacing" textLength="171.9844" x="315.5376" y="541.8887">Muammo haqida izoh yozadi</text><rect fill="#F1F1F1" height="33.9688" rx="12.5" ry="12.5" style="stroke:#181818;stroke-width:0.5;" width="197.6973" x="302.6812" y="574.7188"/><text fill="#000000" font-family="sans-serif" font-size="12" lengthAdjust="spacing" textLength="177.6973" x="312.6812" y="595.8574">Tekshiruv statusi = MUAMMO</text><polygon fill="#F1F1F1" points="292.1729,614.6875,304.1729,626.6875,292.1729,638.6875,280.1729,626.6875,292.1729,614.6875" style="stroke:#181818;stroke-width:0.5;"/><rect fill="#F1F1F1" height="33.9688" rx="12.5" ry="12.5" style="stroke:#181818;stroke-width:0.5;" width="146.1523" x="219.0967" y="658.6875"/><text fill="#000000" font-family="sans-serif" font-size="12" lengthAdjust="spacing" textLength="126.1523" x="229.0967" y="679.8262">Tekshiruvni yuboradi</text><rect fill="#F1F1F1" height="33.9688" rx="12.5" ry="12.5" style="stroke:#181818;stroke-width:0.5;" width="187.0391" x="198.6533" y="712.6563"/><text fill="#000000" font-family="sans-serif" font-size="12" lengthAdjust="spacing" textLength="167.0391" x="208.6533" y="733.7949">Tizim ma'lumotni tekshiradi</text><polygon fill="#F1F1F1" points="241.5181,766.625,342.8276,766.625,354.8276,778.625,342.8276,790.625,241.5181,790.625,229.5181,778.625,241.5181,766.625" style="stroke:#181818;stroke-width:0.5;"/><text fill="#000000" font-family="sans-serif" font-size="11" lengthAdjust="spacing" textLength="101.3096" x="241.5181" y="782.4331">Ma'lumot to'liqmi?</text><text fill="#000000" font-family="sans-serif" font-size="11" lengthAdjust="spacing" textLength="15.0122" x="214.5059" y="776.0308">Ha</text><text fill="#000000" font-family="sans-serif" font-size="11" lengthAdjust="spacing" textLength="23.4556" x="354.8276" y="776.0308">Yo'q</text><rect fill="#F1F1F1" height="33.9688" rx="12.5" ry="12.5" style="stroke:#181818;stroke-width:0.5;" width="140.1289" x="95.2217" y="800.625"/><text fill="#000000" font-family="sans-serif" font-size="12" lengthAdjust="spacing" textLength="120.1289" x="105.2217" y="821.7637">Tekshiruv saqlanadi</text><rect fill="#F1F1F1" height="33.9688" rx="12.5" ry="12.5" style="stroke:#181818;stroke-width:0.5;" width="227.082" x="51.7451" y="854.5938"/><text fill="#000000" font-family="sans-serif" font-size="12" lengthAdjust="spacing" textLength="207.082" x="61.7451" y="875.7324">Dashboard statistikasi yangilanadi</text><rect fill="#F1F1F1" height="33.9688" rx="12.5" ry="12.5" style="stroke:#181818;stroke-width:0.5;" width="298.5723" x="16" y="908.5625"/><text fill="#000000" font-family="sans-serif" font-size="12" lengthAdjust="spacing" textLength="278.5723" x="26" y="929.7012">Foydalanuvchiga "Yozib olindi!" xabari chiqadi</text><rect fill="#F1F1F1" height="33.9688" rx="12.5" ry="12.5" style="stroke:#181818;stroke-width:0.5;" width="168.9746" x="334.5723" y="800.625"/><text fill="#000000" font-family="sans-serif" font-size="12" lengthAdjust="spacing" textLength="148.9746" x="344.5723" y="821.7637">Xatolik xabari chiqariladi</text><polygon fill="#F1F1F1" points="292.1729,948.5313,304.1729,960.5313,292.1729,972.5313,280.1729,960.5313,292.1729,948.5313" style="stroke:#181818;stroke-width:0.5;"/><ellipse cx="292.1729" cy="1003.5313" fill="none" rx="11" ry="11" style="stroke:#222222;stroke-width:1;"/><ellipse cx="292.1729" cy="1003.5313" fill="#222222" rx="6" ry="6" style="stroke:#222222;stroke-width:1;"/><line style="stroke:#181818;stroke-width:1;" x1="292.1729" x2="292.1729" y1="35" y2="55"/><polygon fill="#181818" points="288.1729,45,292.1729,55,296.1729,45,292.1729,49" style="stroke:#181818;stroke-width:1;"/><line style="stroke:#181818;stroke-width:1;" x1="292.1729" x2="292.1729" y1="88.9688" y2="108.9688"/><polygon fill="#181818" points="288.1729,98.9688,292.1729,108.9688,296.1729,98.9688,292.1729,102.9688" style="stroke:#181818;stroke-width:1;"/><line style="stroke:#181818;stroke-width:1;" x1="292.1729" x2="292.1729" y1="142.9375" y2="162.9375"/><polygon fill="#181818" points="288.1729,152.9375,292.1729,162.9375,296.1729,152.9375,292.1729,156.9375" style="stroke:#181818;stroke-width:1;"/><line style="stroke:#181818;stroke-width:1;" x1="292.1729" x2="292.1729" y1="196.9063" y2="216.9063"/><polygon fill="#181818" points="288.1729,206.9063,292.1729,216.9063,296.1729,206.9063,292.1729,210.9063" style="stroke:#181818;stroke-width:1;"/><line style="stroke:#181818;stroke-width:1;" x1="292.1729" x2="292.1729" y1="250.875" y2="270.875"/><polygon fill="#181818" points="288.1729,260.875,292.1729,270.875,296.1729,260.875,292.1729,264.875" style="stroke:#181818;stroke-width:1;"/><line style="stroke:#181818;stroke-width:1;" x1="292.1729" x2="292.1729" y1="304.8438" y2="324.8438"/><polygon fill="#181818" points="288.1729,314.8438,292.1729,324.8438,296.1729,314.8438,292.1729,318.8438" style="stroke:#181818;stroke-width:1;"/><line style="stroke:#181818;stroke-width:1;" x1="292.1729" x2="292.1729" y1="358.8125" y2="378.8125"/><polygon fill="#181818" points="288.1729,368.8125,292.1729,378.8125,296.1729,368.8125,292.1729,372.8125" style="stroke:#181818;stroke-width:1;"/><line style="stroke:#181818;stroke-width:1;" x1="182.8159" x2="182.8159" y1="500.75" y2="520.75"/><polygon fill="#181818" points="178.8159,510.75,182.8159,520.75,186.8159,510.75,182.8159,514.75" style="stroke:#181818;stroke-width:1;"/><line style="stroke:#181818;stroke-width:1;" x1="182.8159" x2="182.8159" y1="554.7188" y2="574.7188"/><polygon fill="#181818" points="178.8159,564.7188,182.8159,574.7188,186.8159,564.7188,182.8159,568.7188" style="stroke:#181818;stroke-width:1;"/><line style="stroke:#181818;stroke-width:1;" x1="401.5298" x2="401.5298" y1="500.75" y2="520.75"/><polygon fill="#181818" points="397.5298,510.75,401.5298,520.75,405.5298,510.75,401.5298,514.75" style="stroke:#181818;stroke-width:1;"/><line style="stroke:#181818;stroke-width:1;" x1="401.5298" x2="401.5298" y1="554.7188" y2="574.7188"/><polygon fill="#181818" points="397.5298,564.7188,401.5298,574.7188,405.5298,564.7188,401.5298,568.7188" style="stroke:#181818;stroke-width:1;"/><line style="stroke:#181818;stroke-width:1;" x1="262.698" x2="182.8159" y1="444.7813" y2="444.7813"/><line style="stroke:#181818;stroke-width:1;" x1="182.8159" x2="182.8159" y1="444.7813" y2="466.7813"/><polygon fill="#181818" points="178.8159,456.7813,182.8159,466.7813,186.8159,456.7813,182.8159,460.7813" style="stroke:#181818;stroke-width:1;"/><line style="stroke:#181818;stroke-width:1;" x1="321.6477" x2="401.5298" y1="444.7813" y2="444.7813"/><line style="stroke:#181818;stroke-width:1;" x1="401.5298" x2="401.5298" y1="444.7813" y2="466.7813"/><polygon fill="#181818" points="397.5298,456.7813,401.5298,466.7813,405.5298,456.7813,401.5298,460.7813" style="stroke:#181818;stroke-width:1;"/><line style="stroke:#181818;stroke-width:1;" x1="182.8159" x2="182.8159" y1="608.6875" y2="626.6875"/><line style="stroke:#181818;stroke-width:1;" x1="182.8159" x2="280.1729" y1="626.6875" y2="626.6875"/><polygon fill="#181818" points="270.1729,622.6875,280.1729,626.6875,270.1729,630.6875,274.1729,626.6875" style="stroke:#181818;stroke-width:1;"/><line style="stroke:#181818;stroke-width:1;" x1="401.5298" x2="401.5298" y1="608.6875" y2="626.6875"/><line style="stroke:#181818;stroke-width:1;" x1="401.5298" x2="304.1729" y1="626.6875" y2="626.6875"/><polygon fill="#181818" points="314.1729,622.6875,304.1729,626.6875,314.1729,630.6875,310.1729,626.6875" style="stroke:#181818;stroke-width:1;"/><line style="stroke:#181818;stroke-width:1;" x1="292.1729" x2="292.1729" y1="412.7813" y2="432.7813"/><polygon fill="#181818" points="288.1729,422.7813,292.1729,432.7813,296.1729,422.7813,292.1729,426.7813" style="stroke:#181818;stroke-width:1;"/><line style="stroke:#181818;stroke-width:1;" x1="292.1729" x2="292.1729" y1="638.6875" y2="658.6875"/><polygon fill="#181818" points="288.1729,648.6875,292.1729,658.6875,296.1729,648.6875,292.1729,652.6875" style="stroke:#181818;stroke-width:1;"/><line style="stroke:#181818;stroke-width:1;" x1="292.1729" x2="292.1729" y1="692.6563" y2="712.6563"/><polygon fill="#181818" points="288.1729,702.6563,292.1729,712.6563,296.1729,702.6563,292.1729,706.6563" style="stroke:#181818;stroke-width:1;"/><line style="stroke:#181818;stroke-width:1;" x1="165.2861" x2="165.2861" y1="834.5938" y2="854.5938"/><polygon fill="#181818" points="161.2861,844.5938,165.2861,854.5938,169.2861,844.5938,165.2861,848.5938" style="stroke:#181818;stroke-width:1;"/><line style="stroke:#181818;stroke-width:1;" x1="165.2861" x2="165.2861" y1="888.5625" y2="908.5625"/><polygon fill="#181818" points="161.2861,898.5625,165.2861,908.5625,169.2861,898.5625,165.2861,902.5625" style="stroke:#181818;stroke-width:1;"/><line style="stroke:#181818;stroke-width:1;" x1="229.5181" x2="165.2861" y1="778.625" y2="778.625"/><line style="stroke:#181818;stroke-width:1;" x1="165.2861" x2="165.2861" y1="778.625" y2="800.625"/><polygon fill="#181818" points="161.2861,790.625,165.2861,800.625,169.2861,790.625,165.2861,794.625" style="stroke:#181818;stroke-width:1;"/><line style="stroke:#181818;stroke-width:1;" x1="354.8276" x2="419.0596" y1="778.625" y2="778.625"/><line style="stroke:#181818;stroke-width:1;" x1="419.0596" x2="419.0596" y1="778.625" y2="800.625"/><polygon fill="#181818" points="415.0596,790.625,419.0596,800.625,423.0596,790.625,419.0596,794.625" style="stroke:#181818;stroke-width:1;"/><line style="stroke:#181818;stroke-width:1;" x1="165.2861" x2="165.2861" y1="942.5313" y2="960.5313"/><line style="stroke:#181818;stroke-width:1;" x1="165.2861" x2="280.1729" y1="960.5313" y2="960.5313"/><polygon fill="#181818" points="270.1729,956.5313,280.1729,960.5313,270.1729,964.5313,274.1729,960.5313" style="stroke:#181818;stroke-width:1;"/><line style="stroke:#181818;stroke-width:1;" x1="419.0596" x2="419.0596" y1="834.5938" y2="960.5313"/><line style="stroke:#181818;stroke-width:1;" x1="419.0596" x2="304.1729" y1="960.5313" y2="960.5313"/><polygon fill="#181818" points="314.1729,956.5313,304.1729,960.5313,314.1729,964.5313,310.1729,960.5313" style="stroke:#181818;stroke-width:1;"/><line style="stroke:#181818;stroke-width:1;" x1="292.1729" x2="292.1729" y1="746.625" y2="766.625"/><polygon fill="#181818" points="288.1729,756.625,292.1729,766.625,296.1729,756.625,292.1729,760.625" style="stroke:#181818;stroke-width:1;"/><line style="stroke:#181818;stroke-width:1;" x1="292.1729" x2="292.1729" y1="972.5313" y2="992.5313"/><polygon fill="#181818" points="288.1729,982.5313,292.1729,992.5313,296.1729,982.5313,292.1729,986.5313" style="stroke:#181818;stroke-width:1;"/><?plantuml-src ZLBHJkD037pFL_ZwalONMY7K7a8KY90uxdGyEasQTNUp9hlU7kdNdqaeK2GaNZrZptZiQCa_OS0MIjpO9d3orKzs7E2V8QcpA1Wao-QNt5VeqAVznX2Guprw0juOh6YHpGkqWgN3087p_Xc55BMSXn6-gGDQHz0ED8K4lSF-GwjMjb77YiuuxVs3UONGaIFVe0UAvakPoIgzpAvjD1IKE059JOlnXLLo74ZP_8eToea7si9qg9xFG4pjORh2dVfm5SqoWFcl552WJtRWGyzMLtV3E4NNEowf1pgmKUXmB3-CDj8UD4D9aU0CLilhvVtwzcAzo6eNQvWM2TkMlo4o4i5WHvh6TxIAtykYk5CXNz5MrtxZwEfzAlarimSwKAk7oLrgMTxZmsCmnIi4mhcZhgMtaAvmzaaSEtsHewaBZAPa3DLWYgAGrLD0ZxwX3xIJpseG9ezye59N9pN-OmBFMEefGC5kQ1c3U-Iy6zJ_eYZLdj3qSYDrN3qAF_q7?></g></svg>