<svg xmlns="http://www.w3.org/2000/svg" xmlns:xlink="http://www.w3.org/1999/xlink" contentStyleType="text/css" data-diagram-type="CLASS" height="994px" preserveAspectRatio="none" style="width:690px;height:994px;background:#FFFFFF;" version="1.1" viewBox="0 0 690 994" width="690px" zoomAndPan="magnify"><?plantuml 1.2026.3beta4?><defs/><g><!--class User--><g class="entity" data-qualified-name="User" data-source-line="3" id="ent0002"><rect fill="#F1F1F1" height="129.4844" rx="2.5" ry="2.5" style="stroke:#181818;stroke-width:0.5;" width="169.7529" x="7" y="461.01"/><ellipse cx="71.6714" cy="477.01" fill="#ADD1B2" rx="11" ry="11" style="stroke:#181818;stroke-width:1;"/><path d="M74.6401,482.6506 Q74.062,482.9475 73.4214,483.0881 Q72.7808,483.2444 72.0776,483.2444 Q69.5776,483.2444 68.2495,481.6038 Q66.937,479.9475 66.937,476.8225 Q66.937,473.6975 68.2495,472.0413 Q69.5776,470.385 72.0776,470.385 Q72.7808,470.385 73.4214,470.5413 Q74.0776,470.6975 74.6401,470.9944 L74.6401,473.7131 Q74.0151,473.135 73.4214,472.8694 Q72.8276,472.5881 72.2026,472.5881 Q70.8589,472.5881 70.1714,473.6663 Q69.4839,474.7288 69.4839,476.8225 Q69.4839,478.9163 70.1714,479.9944 Q70.8589,481.0569 72.2026,481.0569 Q72.8276,481.0569 73.4214,480.7913 Q74.0151,480.51 74.6401,479.9319 L74.6401,482.6506 Z " fill="#000000"/><text fill="#000000" font-family="sans-serif" font-size="14" lengthAdjust="spacing" textLength="31.9102" x="92.1714" y="481.8567">User</text><line style="stroke:#181818;stroke-width:0.5;" x1="8" x2="175.7529" y1="493.01" y2="493.01"/><text fill="#000000" font-family="sans-serif" font-size="14" lengthAdjust="spacing" textLength="69.0771" x="13" y="510.0051">+id: UUID</text><text fill="#000000" font-family="sans-serif" font-size="14" lengthAdjust="spacing" textLength="125.5625" x="13" y="526.302">+fullName: String</text><text fill="#000000" font-family="sans-serif" font-size="14" lengthAdjust="spacing" textLength="106.4902" x="13" y="542.5989">+phone: String</text><text fill="#000000" font-family="sans-serif" font-size="14" lengthAdjust="spacing" textLength="110.4277" x="13" y="558.8957">+role: UserRole</text><text fill="#000000" font-family="sans-serif" font-size="14" lengthAdjust="spacing" textLength="157.7529" x="13" y="575.1926">+createdAt: DateTime</text><line style="stroke:#181818;stroke-width:0.5;" x1="8" x2="175.7529" y1="582.4944" y2="582.4944"/></g><!--class UserRole--><g class="entity" data-qualified-name="UserRole" data-source-line="11" id="ent0003"><rect fill="#F1F1F1" height="96.8906" rx="2.5" ry="2.5" style="stroke:#181818;stroke-width:0.5;" width="103.3281" x="50.21" y="23.3"/><ellipse cx="69.0899" cy="39.3" fill="#EB937F" rx="11" ry="11" style="stroke:#181818;stroke-width:1;"/><path d="M73.1993,45.3 L65.4806,45.3 L65.4806,32.9094 L73.1993,32.9094 L73.1993,35.0656 L67.9337,35.0656 L67.9337,37.7375 L72.6993,37.7375 L72.6993,39.8937 L67.9337,39.8937 L67.9337,43.1437 L73.1993,43.1437 L73.1993,45.3 Z " fill="#000000"/><text fill="#000000" font-family="sans-serif" font-size="14" lengthAdjust="spacing" textLength="62.7061" x="83.9521" y="44.1467">UserRole</text><line style="stroke:#181818;stroke-width:0.5;" x1="51.21" x2="152.5381" y1="55.3" y2="55.3"/><text fill="#000000" font-family="sans-serif" font-size="14" lengthAdjust="spacing" textLength="55.4941" x="56.21" y="72.2951">CITIZEN</text><text fill="#000000" font-family="sans-serif" font-size="14" lengthAdjust="spacing" textLength="47.0381" x="56.21" y="88.592">ADMIN</text><text fill="#000000" font-family="sans-serif" font-size="14" lengthAdjust="spacing" textLength="91.3281" x="56.21" y="104.8889">MODERATOR</text><line style="stroke:#181818;stroke-width:0.5;" x1="51.21" x2="152.5381" y1="112.1906" y2="112.1906"/></g><!--class School--><g class="entity" data-qualified-name="School" data-source-line="17" id="ent0004"><rect fill="#F1F1F1" height="178.375" rx="2.5" ry="2.5" style="stroke:#181818;stroke-width:0.5;" width="167.0049" x="397.37" y="197.49"/><ellipse cx="453.3837" cy="213.49" fill="#ADD1B2" rx="11" ry="11" style="stroke:#181818;stroke-width:1;"/><path d="M456.3524,219.1306 Q455.7743,219.4275 455.1337,219.5681 Q454.493,219.7244 453.7899,219.7244 Q451.2899,219.7244 449.9618,218.0838 Q448.6493,216.4275 448.6493,213.3025 Q448.6493,210.1775 449.9618,208.5213 Q451.2899,206.865 453.7899,206.865 Q454.493,206.865 455.1337,207.0213 Q455.7899,207.1775 456.3524,207.4744 L456.3524,210.1931 Q455.7274,209.615 455.1337,209.3494 Q454.5399,209.0681 453.9149,209.0681 Q452.5712,209.0681 451.8837,210.1463 Q451.1962,211.2088 451.1962,213.3025 Q451.1962,215.3963 451.8837,216.4744 Q452.5712,217.5369 453.9149,217.5369 Q454.5399,217.5369 455.1337,217.2713 Q455.7274,216.99 456.3524,216.4119 L456.3524,219.1306 Z " fill="#000000"/><text fill="#000000" font-family="sans-serif" font-size="14" lengthAdjust="spacing" textLength="46.4775" x="473.8837" y="218.3367">School</text><line style="stroke:#181818;stroke-width:0.5;" x1="398.37" x2="563.3749" y1="229.49" y2="229.49"/><text fill="#000000" font-family="sans-serif" font-size="14" lengthAdjust="spacing" textLength="69.0771" x="403.37" y="246.4851">+id: UUID</text><text fill="#000000" font-family="sans-serif" font-size="14" lengthAdjust="spacing" textLength="102.3818" x="403.37" y="262.782">+name: String</text><text fill="#000000" font-family="sans-serif" font-size="14" lengthAdjust="spacing" textLength="117.9883" x="403.37" y="279.0789">+address: String</text><text fill="#000000" font-family="sans-serif" font-size="14" lengthAdjust="spacing" textLength="111.0703" x="403.37" y="295.3757">+district: String</text><text fill="#000000" font-family="sans-serif" font-size="14" lengthAdjust="spacing" textLength="131.6943" x="403.37" y="311.6726">+latitude: Decimal</text><text fill="#000000" font-family="sans-serif" font-size="14" lengthAdjust="spacing" textLength="143.9512" x="403.37" y="327.9695">+longitude: Decimal</text><text fill="#000000" font-family="sans-serif" font-size="14" lengthAdjust="spacing" textLength="126.1777" x="403.37" y="344.2664">+imageUrl: String</text><text fill="#000000" font-family="sans-serif" font-size="14" lengthAdjust="spacing" textLength="155.0049" x="403.37" y="360.5632">+status: SchoolStatus</text><line style="stroke:#181818;stroke-width:0.5;" x1="398.37" x2="563.3749" y1="367.865" y2="367.865"/></g><!--class SchoolStatus--><g class="entity" data-qualified-name="SchoolStatus" data-source-line="28" id="ent0005"><rect fill="#F1F1F1" height="96.8906" rx="2.5" ry="2.5" style="stroke:#181818;stroke-width:0.5;" width="147.0029" x="188.38" y="23.3"/><ellipse cx="214.1413" cy="39.3" fill="#EB937F" rx="11" ry="11" style="stroke:#181818;stroke-width:1;"/><path d="M218.2507,45.3 L210.532,45.3 L210.532,32.9094 L218.2507,32.9094 L218.2507,35.0656 L212.9851,35.0656 L212.9851,37.7375 L217.7507,37.7375 L217.7507,39.8937 L212.9851,39.8937 L212.9851,43.1437 L218.2507,43.1437 L218.2507,45.3 Z " fill="#000000"/><text fill="#000000" font-family="sans-serif" font-size="14" lengthAdjust="spacing" textLength="91.0889" x="230.5327" y="44.1467">SchoolStatus</text><line style="stroke:#181818;stroke-width:0.5;" x1="189.38" x2="334.3829" y1="55.3" y2="55.3"/><text fill="#000000" font-family="sans-serif" font-size="14" lengthAdjust="spacing" textLength="43.668" x="194.38" y="72.2951">GOOD</text><text fill="#000000" font-family="sans-serif" font-size="14" lengthAdjust="spacing" textLength="135.0029" x="194.38" y="88.592">NEEDS_ATTENTION</text><text fill="#000000" font-family="sans-serif" font-size="14" lengthAdjust="spacing" textLength="67.5186" x="194.38" y="104.8889">PROBLEM</text><line style="stroke:#181818;stroke-width:0.5;" x1="189.38" x2="334.3829" y1="112.1906" y2="112.1906"/></g><!--class PromiseItem--><g class="entity" data-qualified-name="PromiseItem" data-source-line="34" id="ent0006"><rect fill="#F1F1F1" height="145.7813" rx="2.5" ry="2.5" style="stroke:#181818;stroke-width:0.5;" width="214.918" x="211.42" y="452.86"/><ellipse cx="270.5953" cy="468.86" fill="#ADD1B2" rx="11" ry="11" style="stroke:#181818;stroke-width:1;"/><path d="M273.564,474.5006 Q272.9859,474.7975 272.3453,474.9381 Q271.7047,475.0944 271.0015,475.0944 Q268.5015,475.0944 267.1734,473.4538 Q265.8609,471.7975 265.8609,468.6725 Q265.8609,465.5475 267.1734,463.8913 Q268.5015,462.235 271.0015,462.235 Q271.7047,462.235 272.3453,462.3913 Q273.0015,462.5475 273.564,462.8444 L273.564,465.5631 Q272.939,464.985 272.3453,464.7194 Q271.7515,464.4381 271.1265,464.4381 Q269.7828,464.4381 269.0953,465.5163 Q268.4078,466.5788 268.4078,468.6725 Q268.4078,470.7663 269.0953,471.8444 Q269.7828,472.9069 271.1265,472.9069 Q271.7515,472.9069 272.3453,472.6413 Q272.939,472.36 273.564,471.7819 L273.564,474.5006 Z " fill="#000000"/><text fill="#000000" font-family="sans-serif" font-size="14" lengthAdjust="spacing" textLength="88.0674" x="291.0953" y="473.7067">PromiseItem</text><line style="stroke:#181818;stroke-width:0.5;" x1="212.42" x2="425.338" y1="484.86" y2="484.86"/><text fill="#000000" font-family="sans-serif" font-size="14" lengthAdjust="spacing" textLength="69.0771" x="217.42" y="501.8551">+id: UUID</text><text fill="#000000" font-family="sans-serif" font-size="14" lengthAdjust="spacing" textLength="90.0498" x="217.42" y="518.152">+title: String</text><text fill="#000000" font-family="sans-serif" font-size="14" lengthAdjust="spacing" textLength="140.5195" x="217.42" y="534.4489">+description: String</text><text fill="#000000" font-family="sans-serif" font-size="14" lengthAdjust="spacing" textLength="202.918" x="217.42" y="550.7457">+category: PromiseCategory</text><text fill="#000000" font-family="sans-serif" font-size="14" lengthAdjust="spacing" textLength="144.4229" x="217.42" y="567.0426">+plannedDate: Date</text><text fill="#000000" font-family="sans-serif" font-size="14" lengthAdjust="spacing" textLength="132.3232" x="217.42" y="583.3395">+isActive: Boolean</text><line style="stroke:#181818;stroke-width:0.5;" x1="212.42" x2="425.338" y1="590.6413" y2="590.6413"/></g><!--class PromiseCategory--><g class="entity" data-qualified-name="PromiseCategory" data-source-line="43" id="ent0007"><rect fill="#F1F1F1" height="129.4844" rx="2.5" ry="2.5" style="stroke:#181818;stroke-width:0.5;" width="152.1484" x="25.8" y="221.93"/><ellipse cx="40.8" cy="237.93" fill="#EB937F" rx="11" ry="11" style="stroke:#181818;stroke-width:1;"/><path d="M44.9094,243.93 L37.1906,243.93 L37.1906,231.5394 L44.9094,231.5394 L44.9094,233.6956 L39.6438,233.6956 L39.6438,236.3675 L44.4094,236.3675 L44.4094,238.5237 L39.6438,238.5237 L39.6438,241.7737 L44.9094,241.7737 L44.9094,243.93 Z " fill="#000000"/><text fill="#000000" font-family="sans-serif" font-size="14" lengthAdjust="spacing" textLength="120.1484" x="54.8" y="242.7767">PromiseCategory</text><line style="stroke:#181818;stroke-width:0.5;" x1="26.8" x2="176.9484" y1="253.93" y2="253.93"/><text fill="#000000" font-family="sans-serif" font-size="14" lengthAdjust="spacing" textLength="85.3672" x="31.8" y="270.9251">SANITATION</text><text fill="#000000" font-family="sans-serif" font-size="14" lengthAdjust="spacing" textLength="50.4492" x="31.8" y="287.222">REPAIR</text><text fill="#000000" font-family="sans-serif" font-size="14" lengthAdjust="spacing" textLength="80.001" x="31.8" y="303.5189">FURNITURE</text><text fill="#000000" font-family="sans-serif" font-size="14" lengthAdjust="spacing" textLength="52.4658" x="31.8" y="319.8157">SAFETY</text><text fill="#000000" font-family="sans-serif" font-size="14" lengthAdjust="spacing" textLength="48.6719" x="31.8" y="336.1126">OTHER</text><line style="stroke:#181818;stroke-width:0.5;" x1="26.8" x2="176.9484" y1="343.4144" y2="343.4144"/></g><!--class Inspection--><g class="entity" data-qualified-name="Inspection" data-source-line="51" id="ent0008"><rect fill="#F1F1F1" height="129.4844" rx="2.5" ry="2.5" style="stroke:#181818;stroke-width:0.5;" width="192.8379" x="344.46" y="675.65"/><ellipse cx="400.4737" cy="691.65" fill="#ADD1B2" rx="11" ry="11" style="stroke:#181818;stroke-width:1;"/><path d="M403.4424,697.2906 Q402.8643,697.5875 402.2237,697.7281 Q401.583,697.8844 400.8799,697.8844 Q398.3799,697.8844 397.0518,696.2438 Q395.7393,694.5875 395.7393,691.4625 Q395.7393,688.3375 397.0518,686.6813 Q398.3799,685.025 400.8799,685.025 Q401.583,685.025 402.2237,685.1813 Q402.8799,685.3375 403.4424,685.6344 L403.4424,688.3531 Q402.8174,687.775 402.2237,687.5094 Q401.6299,687.2281 401.0049,687.2281 Q399.6612,687.2281 398.9737,688.3063 Q398.2862,689.3688 398.2862,691.4625 Q398.2862,693.5563 398.9737,694.6344 Q399.6612,695.6969 401.0049,695.6969 Q401.6299,695.6969 402.2237,695.4313 Q402.8174,695.15 403.4424,694.5719 L403.4424,697.2906 Z " fill="#000000"/><text fill="#000000" font-family="sans-serif" font-size="14" lengthAdjust="spacing" textLength="72.3105" x="420.9737" y="696.4967">Inspection</text><line style="stroke:#181818;stroke-width:0.5;" x1="345.46" x2="536.2979" y1="707.65" y2="707.65"/><text fill="#000000" font-family="sans-serif" font-size="14" lengthAdjust="spacing" textLength="69.0771" x="350.46" y="724.6451">+id: UUID</text><text fill="#000000" font-family="sans-serif" font-size="14" lengthAdjust="spacing" textLength="180.8379" x="350.46" y="740.942">+status: InspectionStatus</text><text fill="#000000" font-family="sans-serif" font-size="14" lengthAdjust="spacing" textLength="129.1924" x="350.46" y="757.2389">+comment: String</text><text fill="#000000" font-family="sans-serif" font-size="14" lengthAdjust="spacing" textLength="157.7529" x="350.46" y="773.5357">+createdAt: DateTime</text><text fill="#000000" font-family="sans-serif" font-size="14" lengthAdjust="spacing" textLength="156.9805" x="350.46" y="789.8326">+verifiedAt: DateTime</text><line style="stroke:#181818;stroke-width:0.5;" x1="345.46" x2="536.2979" y1="797.1344" y2="797.1344"/></g><!--class InspectionStatus--><g class="entity" data-qualified-name="InspectionStatus" data-source-line="59" id="ent0009"><rect fill="#F1F1F1" height="113.1875" rx="2.5" ry="2.5" style="stroke:#181818;stroke-width:0.5;" width="148.9219" x="213.42" y="230.08"/><ellipse cx="228.42" cy="246.08" fill="#EB937F" rx="11" ry="11" style="stroke:#181818;stroke-width:1;"/><path d="M232.5294,252.08 L224.8106,252.08 L224.8106,239.6894 L232.5294,239.6894 L232.5294,241.8456 L227.2638,241.8456 L227.2638,244.5175 L232.0294,244.5175 L232.0294,246.6737 L227.2638,246.6737 L227.2638,249.9237 L232.5294,249.9237 L232.5294,252.08 Z " fill="#000000"/><text fill="#000000" font-family="sans-serif" font-size="14" lengthAdjust="spacing" textLength="116.9219" x="242.42" y="250.9267">InspectionStatus</text><line style="stroke:#181818;stroke-width:0.5;" x1="214.42" x2="361.3419" y1="262.08" y2="262.08"/><text fill="#000000" font-family="sans-serif" font-size="14" lengthAdjust="spacing" textLength="86.1396" x="219.42" y="279.0751">COMPLETED</text><text fill="#000000" font-family="sans-serif" font-size="14" lengthAdjust="spacing" textLength="67.5186" x="219.42" y="295.372">PROBLEM</text><text fill="#000000" font-family="sans-serif" font-size="14" lengthAdjust="spacing" textLength="125.959" x="219.42" y="311.6689">PENDING_REVIEW</text><text fill="#000000" font-family="sans-serif" font-size="14" lengthAdjust="spacing" textLength="69.501" x="219.42" y="327.9657">REJECTED</text><line style="stroke:#181818;stroke-width:0.5;" x1="214.42" x2="361.3419" y1="335.2675" y2="335.2675"/></g><!--class Photo--><g class="entity" data-qualified-name="Photo" data-source-line="66" id="ent0010"><rect fill="#F1F1F1" height="96.8906" rx="2.5" ry="2.5" style="stroke:#181818;stroke-width:0.5;" width="181.2988" x="350.23" y="882.13"/><ellipse cx="416.6616" cy="898.13" fill="#ADD1B2" rx="11" ry="11" style="stroke:#181818;stroke-width:1;"/><path d="M419.6304,903.7706 Q419.0523,904.0675 418.4116,904.2081 Q417.771,904.3644 417.0679,904.3644 Q414.5679,904.3644 413.2398,902.7238 Q411.9273,901.0675 411.9273,897.9425 Q411.9273,894.8175 413.2398,893.1613 Q414.5679,891.505 417.0679,891.505 Q417.771,891.505 418.4116,891.6613 Q419.0679,891.8175 419.6304,892.1144 L419.6304,894.8331 Q419.0054,894.255 418.4116,893.9894 Q417.8179,893.7081 417.1929,893.7081 Q415.8491,893.7081 415.1616,894.7863 Q414.4741,895.8488 414.4741,897.9425 Q414.4741,900.0363 415.1616,901.1144 Q415.8491,902.1769 417.1929,902.1769 Q417.8179,902.1769 418.4116,901.9113 Q419.0054,901.63 419.6304,901.0519 L419.6304,903.7706 Z " fill="#000000"/><text fill="#000000" font-family="sans-serif" font-size="14" lengthAdjust="spacing" textLength="39.9355" x="437.1616" y="902.9767">Photo</text><line style="stroke:#181818;stroke-width:0.5;" x1="351.23" x2="530.5288" y1="914.13" y2="914.13"/><text fill="#000000" font-family="sans-serif" font-size="14" lengthAdjust="spacing" textLength="69.0771" x="356.23" y="931.1251">+id: UUID</text><text fill="#000000" font-family="sans-serif" font-size="14" lengthAdjust="spacing" textLength="103.8926" x="356.23" y="947.422">+fileUrl: String</text><text fill="#000000" font-family="sans-serif" font-size="14" lengthAdjust="spacing" textLength="169.2988" x="356.23" y="963.7189">+uploadedAt: DateTime</text><line style="stroke:#181818;stroke-width:0.5;" x1="351.23" x2="530.5288" y1="971.0206" y2="971.0206"/></g><!--class DashboardStats--><g class="entity" data-qualified-name="DashboardStats" data-source-line="72" id="ent0011"><rect fill="#F1F1F1" height="129.4844" rx="2.5" ry="2.5" style="stroke:#181818;stroke-width:0.5;" width="202.9619" x="472.4" y="7"/><ellipse cx="513.9605" cy="23" fill="#ADD1B2" rx="11" ry="11" style="stroke:#181818;stroke-width:1;"/><path d="M516.9293,28.6406 Q516.3512,28.9375 515.7105,29.0781 Q515.0699,29.2344 514.3668,29.2344 Q511.8668,29.2344 510.5387,27.5938 Q509.2262,25.9375 509.2262,22.8125 Q509.2262,19.6875 510.5387,18.0313 Q511.8668,16.375 514.3668,16.375 Q515.0699,16.375 515.7105,16.5313 Q516.3668,16.6875 516.9293,16.9844 L516.9293,19.7031 Q516.3043,19.125 515.7105,18.8594 Q515.1168,18.5781 514.4918,18.5781 Q513.148,18.5781 512.4605,19.6563 Q511.773,20.7188 511.773,22.8125 Q511.773,24.9063 512.4605,25.9844 Q513.148,27.0469 514.4918,27.0469 Q515.1168,27.0469 515.7105,26.7813 Q516.3043,26.5 516.9293,25.9219 L516.9293,28.6406 Z " fill="#000000"/><text fill="#000000" font-family="sans-serif" font-size="14" lengthAdjust="spacing" textLength="111.9385" x="533.8629" y="27.8467">DashboardStats</text><line style="stroke:#181818;stroke-width:0.5;" x1="473.4" x2="674.3619" y1="39" y2="39"/><text fill="#000000" font-family="sans-serif" font-size="14" lengthAdjust="spacing" textLength="157.042" x="478.4" y="55.9951">+totalSchools: Integer</text><text fill="#000000" font-family="sans-serif" font-size="14" lengthAdjust="spacing" textLength="182.875" x="478.4" y="72.292">+totalInspections: Integer</text><text fill="#000000" font-family="sans-serif" font-size="14" lengthAdjust="spacing" textLength="187.1133" x="478.4" y="88.5889">+completedCount: Integer</text><text fill="#000000" font-family="sans-serif" font-size="14" lengthAdjust="spacing" textLength="171.0693" x="478.4" y="104.8857">+problemCount: Integer</text><text fill="#000000" font-family="sans-serif" font-size="14" lengthAdjust="spacing" textLength="190.9619" x="478.4" y="121.1826">+satisfactionRate: Decimal</text><line style="stroke:#181818;stroke-width:0.5;" x1="473.4" x2="674.3619" y1="128.4844" y2="128.4844"/></g><!--class Notification--><g class="entity" data-qualified-name="Notification" data-source-line="80" id="ent0012"><rect fill="#F1F1F1" height="129.4844" rx="2.5" ry="2.5" style="stroke:#181818;stroke-width:0.5;" width="169.7529" x="7" y="675.65"/><ellipse cx="47.8407" cy="691.65" fill="#ADD1B2" rx="11" ry="11" style="stroke:#181818;stroke-width:1;"/><path d="M50.8095,697.2906 Q50.2313,697.5875 49.5907,697.7281 Q48.9501,697.8844 48.247,697.8844 Q45.747,697.8844 44.4188,696.2438 Q43.1063,694.5875 43.1063,691.4625 Q43.1063,688.3375 44.4188,686.6813 Q45.747,685.025 48.247,685.025 Q48.9501,685.025 49.5907,685.1813 Q50.247,685.3375 50.8095,685.6344 L50.8095,688.3531 Q50.1845,687.775 49.5907,687.5094 Q48.997,687.2281 48.372,687.2281 Q47.0282,687.2281 46.3407,688.3063 Q45.6532,689.3688 45.6532,691.4625 Q45.6532,693.5563 46.3407,694.6344 Q47.0282,695.6969 48.372,695.6969 Q48.997,695.6969 49.5907,695.4313 Q50.1845,695.15 50.8095,694.5719 L50.8095,697.2906 Z " fill="#000000"/><text fill="#000000" font-family="sans-serif" font-size="14" lengthAdjust="spacing" textLength="80.3291" x="67.5831" y="696.4967">Notification</text><line style="stroke:#181818;stroke-width:0.5;" x1="8" x2="175.7529" y1="707.65" y2="707.65"/><text fill="#000000" font-family="sans-serif" font-size="14" lengthAdjust="spacing" textLength="69.0771" x="13" y="724.6451">+id: UUID</text><text fill="#000000" font-family="sans-serif" font-size="14" lengthAdjust="spacing" textLength="90.0498" x="13" y="740.942">+title: String</text><text fill="#000000" font-family="sans-serif" font-size="14" lengthAdjust="spacing" textLength="125.5967" x="13" y="757.2389">+message: String</text><text fill="#000000" font-family="sans-serif" font-size="14" lengthAdjust="spacing" textLength="157.7529" x="13" y="773.5357">+createdAt: DateTime</text><text fill="#000000" font-family="sans-serif" font-size="14" lengthAdjust="spacing" textLength="124.5781" x="13" y="789.8326">+isRead: Boolean</text><line style="stroke:#181818;stroke-width:0.5;" x1="8" x2="175.7529" y1="797.1344" y2="797.1344"/></g><!--link User to Inspection--><g class="link" data-entity-1="ent0002" data-entity-2="ent0008" data-link-type="association" data-source-line="88" id="lnk13"><path codeLine="88" d="M177.18,587.77 C182.79,591.5 188.39,595.16 193.88,598.65 C242.41,629.48 297.92,661.39 344.01,687.02" fill="none" id="User-Inspection" style="stroke:#181818;stroke-width:1;"/><polygon fill="#000000" points="277.1771,639.7728,270.9062,632.6225,267.901,637.674,277.1771,639.7728" style="stroke:#000000;stroke-width:1;"/><text fill="#000000" font-family="sans-serif" font-size="13" lengthAdjust="spacing" textLength="51.4097" x="281.88" y="641.7169">submits</text><text fill="#000000" font-family="sans-serif" font-size="13" lengthAdjust="spacing" textLength="8.271" x="184.8662" y="589.5277">1</text><text fill="#000000" font-family="sans-serif" font-size="13" lengthAdjust="spacing" textLength="23.0356" x="313.3916" y="679.8115">0..*</text></g><!--link School to PromiseItem--><g class="link" data-entity-1="ent0004" data-entity-2="ent0006" data-link-type="association" data-source-line="89" id="lnk14"><path codeLine="89" d="M420.32,376.29 C403.16,401.41 384.68,428.45 368.26,452.48" fill="none" id="School-PromiseItem" style="stroke:#181818;stroke-width:1;"/><polygon fill="#000000" points="402.0592,418.5547,409.5887,412.7446,404.7355,409.4285,402.0592,418.5547" style="stroke:#000000;stroke-width:1;"/><text fill="#000000" font-family="sans-serif" font-size="13" lengthAdjust="spacing" textLength="22.9785" x="413.88" y="418.9269">has</text><text fill="#000000" font-family="sans-serif" font-size="13" lengthAdjust="spacing" textLength="8.271" x="407.3881" y="395.7972">1</text><text fill="#000000" font-family="sans-serif" font-size="13" lengthAdjust="spacing" textLength="23.0356" x="348.8722" y="441.8548">1..*</text></g><!--link School to Inspection--><g class="link" data-entity-1="ent0004" data-entity-2="ent0008" data-link-type="association" data-source-line="90" id="lnk15"><path codeLine="90" d="M486.92,376.35 C490.04,449.26 490.29,554.97 473.88,645.65 C472.11,655.41 469.47,665.51 466.44,675.32" fill="none" id="School-Inspection" style="stroke:#181818;stroke-width:1;"/><polygon fill="#000000" points="492.5383,530.8047,496.0885,521.9816,490.2244,521.5799,492.5383,530.8047" style="stroke:#000000;stroke-width:1;"/><text fill="#000000" font-family="sans-serif" font-size="13" lengthAdjust="spacing" textLength="54.5645" x="501.88" y="530.3169">receives</text><text fill="#000000" font-family="sans-serif" font-size="13" lengthAdjust="spacing" textLength="8.271" x="479.0871" y="395.8617">1</text><text fill="#000000" font-family="sans-serif" font-size="13" lengthAdjust="spacing" textLength="23.0356" x="444.9799" y="664.4566">0..*</text></g><!--link Inspection to Photo--><g class="link" data-entity-1="ent0008" data-entity-2="ent0010" data-link-type="association" data-source-line="91" id="lnk16"><path codeLine="91" d="M440.88,805.62 C440.88,830.54 440.88,858.57 440.88,881.67" fill="none" id="Inspection-Photo" style="stroke:#181818;stroke-width:1;"/><polygon fill="#000000" points="445.88,848.6964,448.8189,839.6513,442.9411,839.6513,445.88,848.6964" style="stroke:#000000;stroke-width:1;"/><text fill="#000000" font-family="sans-serif" font-size="13" lengthAdjust="spacing" textLength="55.0278" x="454.88" y="848.1969">contains</text><text fill="#000000" font-family="sans-serif" font-size="13" lengthAdjust="spacing" textLength="8.271" x="432.4816" y="825.1938">1</text><text fill="#000000" font-family="sans-serif" font-size="13" lengthAdjust="spacing" textLength="23.0356" x="416.3372" y="871.1664">0..*</text></g><!--link PromiseItem to Inspection--><g class="link" data-entity-1="ent0006" data-entity-2="ent0008" data-link-type="association" data-source-line="92" id="lnk17"><path codeLine="92" d="M358.47,598.95 C367.09,614.41 376.22,630.61 384.88,645.65 C390.41,655.25 396.34,665.37 402.2,675.25" fill="none" id="PromiseItem-Inspection" style="stroke:#181818;stroke-width:1;"/><polygon fill="#000000" points="392.3663,641.5544,390.4184,632.2455,385.3187,635.1683,392.3663,641.5544" style="stroke:#000000;stroke-width:1;"/><text fill="#000000" font-family="sans-serif" font-size="13" lengthAdjust="spacing" textLength="70.2939" x="398.88" y="641.7169">checked in</text><text fill="#000000" font-family="sans-serif" font-size="13" lengthAdjust="spacing" textLength="8.271" x="353.8752" y="618.7149">1</text><text fill="#000000" font-family="sans-serif" font-size="13" lengthAdjust="spacing" textLength="23.0356" x="373.7136" y="664.3789">0..*</text></g><!--link User to Notification--><g class="link" data-entity-1="ent0002" data-entity-2="ent0012" data-link-type="association" data-source-line="93" id="lnk18"><path codeLine="93" d="M91.88,590.84 C91.88,617.62 91.88,648.67 91.88,675.43" fill="none" id="User-Notification" style="stroke:#181818;stroke-width:1;"/><polygon fill="#000000" points="96.88,642.2164,99.8189,633.1713,93.9411,633.1713,96.88,642.2164" style="stroke:#000000;stroke-width:1;"/><text fill="#000000" font-family="sans-serif" font-size="13" lengthAdjust="spacing" textLength="54.5645" x="105.88" y="641.7169">receives</text><text fill="#000000" font-family="sans-serif" font-size="13" lengthAdjust="spacing" textLength="8.271" x="83.4818" y="610.3994">1</text><text fill="#000000" font-family="sans-serif" font-size="13" lengthAdjust="spacing" textLength="23.0356" x="67.6245" y="664.5786">0..*</text></g><!--link DashboardStats to School--><g class="link" data-entity-1="ent0011" data-entity-2="ent0004" data-link-type="dependency" data-source-line="94" id="lnk19"><path codeLine="94" d="M545.85,136.92 C537.56,155.9 530.7302,171.521 521.9002,191.751" fill="none" id="DashboardStats-to-School" style="stroke:#181818;stroke-width:1;stroke-dasharray:7,7;"/><polygon fill="#181818" points="519.5,197.25,526.7663,190.6016,521.5002,192.6675,519.4343,187.4014,519.5,197.25" style="stroke:#181818;stroke-width:1;"/></g><!--link DashboardStats to Inspection--><g class="link" data-entity-1="ent0011" data-entity-2="ent0008" data-link-type="dependency" data-source-line="95" id="lnk20"><path codeLine="95" d="M587.49,136.58 C606.13,238.78 630.36,443.42 564.88,598.65 C553.04,626.7 537.3637,648.6165 517.0837,670.7465" fill="none" id="DashboardStats-to-Inspection" style="stroke:#181818;stroke-width:1;stroke-dasharray:7,7;"/><polygon fill="#181818" points="513.03,675.17,522.0596,671.2372,516.4081,671.4837,516.1616,665.8323,513.03,675.17" style="stroke:#181818;stroke-width:1;"/></g><?plantuml-src ZLHHRvim47xdLrXvNDMeVUMX4WrknzH0HCYcxQLou1gi6XlPfjCsxR_lRD840flsnF7vxlpTtNSshrosJBE6b88P4rch-Rwpa9HARlbF83U1ERdiMVbwqAgJrKe9fSdtcbi8V23P6T3aLq385Qz2ijibiRDVEY5Ira18jfXO7XpMragE0Aq4_hi4ELeEAJKm2rLaGnAZKV06Wjz10B9hJdx-ibLI9DzeYbOKhnFtNMSnpQCYorr0JsrRrag9AJbvGOnLbGPZXb353Tgb7MA2MMwx2aDZA7d3X0ULF4nH_1vWfyKmt5XcEtU9PxNrVwVYXg0d_9XbZcjAQRnzZeg2faMIkJetUNR_HDVdAZTQDTn0Og6PbegCnQZM2aofUMkvaaEun6uVbFuHlgTR7G4_EC6aXCfDf9-BlyL4fULlYDmZSs3oLCj51azg6wL94HrBoEacId8q7dOvmhkSUey7Mdn58oi-qi4G4sbQA1tVQNNlBJtx7DlgAb9D0t8qm3br8Vm6ch_mlwZkCdMllcozUQ85ZGVpG8kcSP8-FkVqSqA_-3e_qPNpEi-gLbRDR0iNbshfMg5ODINLvucPgVUAwSgHwZbTMMMPw7NaMuBT1tqwEDSnFiGsjGAmAojSRpiwQhNQ2sYc1mONmRmmdotlHN6K_ebWgYps55KrExU9AXjSFzoO_nWMDpcmQYGw_m8jRXVa-feiRfRB3ukXQ49Ykdt3iKjtmV51UFUzzRx3_Gb9pMOSPv9gA07Lxvm7-3YWdtP8y4crZ4ldExpi7zdB6ifNg0YN63DJtwYz8p8NobWkxuvlozp9-Su_?></g></svg>