<svg xmlns="http://www.w3.org/2000/svg" xmlns:xlink="http://www.w3.org/1999/xlink" contentStyleType="text/css" data-diagram-type="DESCRIPTION" height="573px" preserveAspectRatio="none" style="width:827px;height:573px;background:#FFFFFF;" version="1.1" viewBox="0 0 827 573" width="827px" zoomAndPan="magnify"><?plantuml 1.2026.3beta4?><defs/><g><!--cluster Client Layer--><g class="cluster" data-qualified-name="Client Layer" data-source-line="2" id="ent0002"><path d="M134.5,6 L230.2939,6 A3.75,3.75 0 0 1 232.7939,8.5 L239.7939,28.2969 L695.5,28.2969 A2.5,2.5 0 0 1 698,30.7969 L698,100.79 A2.5,2.5 0 0 1 695.5,103.29 L134.5,103.29 A2.5,2.5 0 0 1 132,100.79 L132,8.5 A2.5,2.5 0 0 1 134.5,6" fill="none" style="stroke:#000000;stroke-width:1.5;"/><line style="stroke:#000000;stroke-width:1.5;" x1="132" x2="239.7939" y1="28.2969" y2="28.2969"/><text fill="#000000" font-family="sans-serif" font-size="14" font-weight="700" lengthAdjust="spacing" textLength="94.7939" x="136" y="20.9951">Client Layer</text></g><!--cluster Application Layer--><g class="cluster" data-qualified-name="Application Layer" data-source-line="8" id="ent0006"><path d="M8.5,127.29 L147.5654,127.29 A3.75,3.75 0 0 1 150.0654,129.79 L157.0654,149.5869 L809.5,149.5869 A2.5,2.5 0 0 1 812,152.0869 L812,434.68 A2.5,2.5 0 0 1 809.5,437.18 L8.5,437.18 A2.5,2.5 0 0 1 6,434.68 L6,129.79 A2.5,2.5 0 0 1 8.5,127.29" fill="none" style="stroke:#000000;stroke-width:1.5;"/><line style="stroke:#000000;stroke-width:1.5;" x1="6" x2="157.0654" y1="149.5869" y2="149.5869"/><text fill="#000000" font-family="sans-serif" font-size="14" font-weight="700" lengthAdjust="spacing" textLength="138.0654" x="10" y="142.2851">Application Layer</text></g><!--cluster Data Layer--><g class="cluster" data-qualified-name="Data Layer" data-source-line="17" id="ent0013"><path d="M228.5,461.18 L315.4756,461.18 A3.75,3.75 0 0 1 317.9756,463.68 L324.9756,483.4769 L683.5,483.4769 A2.5,2.5 0 0 1 686,485.9769 L686,555.98 A2.5,2.5 0 0 1 683.5,558.48 L228.5,558.48 A2.5,2.5 0 0 1 226,555.98 L226,463.68 A2.5,2.5 0 0 1 228.5,461.18" fill="none" style="stroke:#000000;stroke-width:1.5;"/><line style="stroke:#000000;stroke-width:1.5;" x1="226" x2="324.9756" y1="483.4769" y2="483.4769"/><text fill="#000000" font-family="sans-serif" font-size="14" font-weight="700" lengthAdjust="spacing" textLength="85.9756" x="230" y="476.1751">Data Layer</text></g><!--entity Citizen Web App--><g class="entity" data-qualified-name="Client Layer.Citizen Web App" data-source-line="3" id="ent0003"><rect fill="#F1F1F1" height="46.2969" rx="2.5" ry="2.5" style="stroke:#181818;stroke-width:0.5;" width="155.4727" x="148.26" y="41"/><rect fill="#F1F1F1" height="10" style="stroke:#181818;stroke-width:0.5;" width="15" x="283.7327" y="46"/><rect fill="#F1F1F1" height="2" style="stroke:#181818;stroke-width:0.5;" width="4" x="281.7327" y="48"/><rect fill="#F1F1F1" height="2" style="stroke:#181818;stroke-width:0.5;" width="4" x="281.7327" y="52"/><text fill="#000000" font-family="sans-serif" font-size="14" lengthAdjust="spacing" textLength="115.4727" x="163.26" y="73.9951">Citizen Web App</text></g><!--entity Public Dashboard UI--><g class="entity" data-qualified-name="Client Layer.Public Dashboard UI" data-source-line="4" id="ent0004"><rect fill="#F1F1F1" height="46.2969" rx="2.5" ry="2.5" style="stroke:#181818;stroke-width:0.5;" width="181.1553" x="338.42" y="41"/><rect fill="#F1F1F1" height="10" style="stroke:#181818;stroke-width:0.5;" width="15" x="499.5753" y="46"/><rect fill="#F1F1F1" height="2" style="stroke:#181818;stroke-width:0.5;" width="4" x="497.5753" y="48"/><rect fill="#F1F1F1" height="2" style="stroke:#181818;stroke-width:0.5;" width="4" x="497.5753" y="52"/><text fill="#000000" font-family="sans-serif" font-size="14" lengthAdjust="spacing" textLength="141.1553" x="353.42" y="73.9951">Public Dashboard UI</text></g><!--entity Admin Panel--><g class="entity" data-qualified-name="Client Layer.Admin Panel" data-source-line="5" id="ent0005"><rect fill="#F1F1F1" height="46.2969" rx="2.5" ry="2.5" style="stroke:#181818;stroke-width:0.5;" width="127.7119" x="554.14" y="41"/><rect fill="#F1F1F1" height="10" style="stroke:#181818;stroke-width:0.5;" width="15" x="661.8519" y="46"/><rect fill="#F1F1F1" height="2" style="stroke:#181818;stroke-width:0.5;" width="4" x="659.8519" y="48"/><rect fill="#F1F1F1" height="2" style="stroke:#181818;stroke-width:0.5;" width="4" x="659.8519" y="52"/><text fill="#000000" font-family="sans-serif" font-size="14" lengthAdjust="spacing" textLength="87.7119" x="569.14" y="73.9951">Admin Panel</text></g><!--entity Frontend (React/Vue)--><g class="entity" data-qualified-name="Application Layer.Frontend .React.Vue." data-source-line="9" id="ent0007"><rect fill="#F1F1F1" height="46.2969" rx="2.5" ry="2.5" style="stroke:#181818;stroke-width:0.5;" width="190.3701" x="333.81" y="162.29"/><rect fill="#F1F1F1" height="10" style="stroke:#181818;stroke-width:0.5;" width="15" x="504.1801" y="167.29"/><rect fill="#F1F1F1" height="2" style="stroke:#181818;stroke-width:0.5;" width="4" x="502.1801" y="169.29"/><rect fill="#F1F1F1" height="2" style="stroke:#181818;stroke-width:0.5;" width="4" x="502.1801" y="173.29"/><text fill="#000000" font-family="sans-serif" font-size="14" lengthAdjust="spacing" textLength="150.3701" x="348.81" y="195.2851">Frontend (React/Vue)</text></g><!--entity Backend API (Node/Python)--><g class="entity" data-qualified-name="Application Layer.Backend API .Node.Python." data-source-line="10" id="ent0008"><rect fill="#F1F1F1" height="46.2969" rx="2.5" ry="2.5" style="stroke:#181818;stroke-width:0.5;" width="232.1172" x="312.94" y="268.59"/><rect fill="#F1F1F1" height="10" style="stroke:#181818;stroke-width:0.5;" width="15" x="525.0572" y="273.59"/><rect fill="#F1F1F1" height="2" style="stroke:#181818;stroke-width:0.5;" width="4" x="523.0572" y="275.59"/><rect fill="#F1F1F1" height="2" style="stroke:#181818;stroke-width:0.5;" width="4" x="523.0572" y="279.59"/><text fill="#000000" font-family="sans-serif" font-size="14" lengthAdjust="spacing" textLength="192.1172" x="327.94" y="301.5851">Backend API (Node/Python)</text></g><!--entity Auth Module (Demo)--><g class="entity" data-qualified-name="Application Layer.Auth Module .Demo." data-source-line="11" id="ent0009"><rect fill="#F1F1F1" height="46.2969" rx="2.5" ry="2.5" style="stroke:#181818;stroke-width:0.5;" width="185.1406" x="22.43" y="374.89"/><rect fill="#F1F1F1" height="10" style="stroke:#181818;stroke-width:0.5;" width="15" x="187.5706" y="379.89"/><rect fill="#F1F1F1" height="2" style="stroke:#181818;stroke-width:0.5;" width="4" x="185.5706" y="381.89"/><rect fill="#F1F1F1" height="2" style="stroke:#181818;stroke-width:0.5;" width="4" x="185.5706" y="385.89"/><text fill="#000000" font-family="sans-serif" font-size="14" lengthAdjust="spacing" textLength="145.1406" x="37.43" y="407.8851">Auth Module (Demo)</text></g><!--entity Inspection Service--><g class="entity" data-qualified-name="Application Layer.Inspection Service" data-source-line="12" id="ent0010"><rect fill="#F1F1F1" height="46.2969" rx="2.5" ry="2.5" style="stroke:#181818;stroke-width:0.5;" width="168.502" x="242.75" y="374.89"/><rect fill="#F1F1F1" height="10" style="stroke:#181818;stroke-width:0.5;" width="15" x="391.252" y="379.89"/><rect fill="#F1F1F1" height="2" style="stroke:#181818;stroke-width:0.5;" width="4" x="389.252" y="381.89"/><rect fill="#F1F1F1" height="2" style="stroke:#181818;stroke-width:0.5;" width="4" x="389.252" y="385.89"/><text fill="#000000" font-family="sans-serif" font-size="14" lengthAdjust="spacing" textLength="128.502" x="257.75" y="407.8851">Inspection Service</text></g><!--entity Dashboard Service--><g class="entity" data-qualified-name="Application Layer.Dashboard Service" data-source-line="13" id="ent0011"><rect fill="#F1F1F1" height="46.2969" rx="2.5" ry="2.5" style="stroke:#181818;stroke-width:0.5;" width="172.3916" x="445.8" y="374.89"/><rect fill="#F1F1F1" height="10" style="stroke:#181818;stroke-width:0.5;" width="15" x="598.1916" y="379.89"/><rect fill="#F1F1F1" height="2" style="stroke:#181818;stroke-width:0.5;" width="4" x="596.1916" y="381.89"/><rect fill="#F1F1F1" height="2" style="stroke:#181818;stroke-width:0.5;" width="4" x="596.1916" y="385.89"/><text fill="#000000" font-family="sans-serif" font-size="14" lengthAdjust="spacing" textLength="132.3916" x="460.8" y="407.8851">Dashboard Service</text></g><!--entity School Service--><g class="entity" data-qualified-name="Application Layer.School Service" data-source-line="14" id="ent0012"><rect fill="#F1F1F1" height="46.2969" rx="2.5" ry="2.5" style="stroke:#181818;stroke-width:0.5;" width="142.6689" x="653.67" y="374.89"/><rect fill="#F1F1F1" height="10" style="stroke:#181818;stroke-width:0.5;" width="15" x="776.3389" y="379.89"/><rect fill="#F1F1F1" height="2" style="stroke:#181818;stroke-width:0.5;" width="4" x="774.3389" y="381.89"/><rect fill="#F1F1F1" height="2" style="stroke:#181818;stroke-width:0.5;" width="4" x="774.3389" y="385.89"/><text fill="#000000" font-family="sans-serif" font-size="14" lengthAdjust="spacing" textLength="102.6689" x="668.67" y="407.8851">School Service</text></g><!--entity DB--><g class="entity" data-qualified-name="Data Layer.DB" data-source-line="18" id="ent0014"><path d="M420.48,506.68 C420.48,496.68 544.999,496.68 544.999,496.68 C544.999,496.68 669.5181,496.68 669.5181,506.68 L669.5181,531.9769 C669.5181,541.9769 544.999,541.9769 544.999,541.9769 C544.999,541.9769 420.48,541.9769 420.48,531.9769 L420.48,506.68" fill="#F1F1F1" style="stroke:#181818;stroke-width:0.5;"/><path d="M420.48,506.68 C420.48,516.68 544.999,516.68 544.999,516.68 C544.999,516.68 669.5181,516.68 669.5181,506.68" fill="none" style="stroke:#181818;stroke-width:0.5;"/><text fill="#000000" font-family="sans-serif" font-size="14" lengthAdjust="spacing" textLength="229.0381" x="430.48" y="533.6751">PostgreSQL / Firebase / Local DB</text></g><!--entity Image Storage--><g class="entity" data-qualified-name="Data Layer.Image Storage" data-source-line="19" id="ent0015"><rect fill="#F1F1F1" height="46.2969" rx="2.5" ry="2.5" style="stroke:#181818;stroke-width:0.5;" width="143.0723" x="242.46" y="496.18"/><rect fill="#F1F1F1" height="10" style="stroke:#181818;stroke-width:0.5;" width="15" x="365.5323" y="501.18"/><rect fill="#F1F1F1" height="2" style="stroke:#181818;stroke-width:0.5;" width="4" x="363.5323" y="503.18"/><rect fill="#F1F1F1" height="2" style="stroke:#181818;stroke-width:0.5;" width="4" x="363.5323" y="507.18"/><text fill="#000000" font-family="sans-serif" font-size="14" lengthAdjust="spacing" textLength="103.0723" x="257.46" y="529.1751">Image Storage</text></g><!--link Citizen Web App to Frontend (React/Vue)--><g class="link" data-entity-1="ent0003" data-entity-2="ent0007" data-link-type="dependency" data-source-line="22" id="lnk16"><path d="M264.18,87.58 C300.36,108.84 349.237,137.5702 385.467,158.8602" fill="none" id="Citizen Web App-to-Frontend (React/Vue)" style="stroke:#181818;stroke-width:1;"/><polygon fill="#181818" points="390.64,161.9,384.9071,153.8916,386.3292,159.3668,380.854,160.7889,390.64,161.9" style="stroke:#181818;stroke-width:1;"/></g><!--link Public Dashboard UI to Frontend (React/Vue)--><g class="link" data-entity-1="ent0004" data-entity-2="ent0007" data-link-type="dependency" data-source-line="23" id="lnk17"><path d="M429,87.58 C429,108.91 429,134.81 429,156.1" fill="none" id="Public Dashboard UI-to-Frontend (React/Vue)" style="stroke:#181818;stroke-width:1;"/><polygon fill="#181818" points="429,162.1,433,153.1,429,157.1,425,153.1,429,162.1" style="stroke:#181818;stroke-width:1;"/></g><!--link Admin Panel to Frontend (React/Vue)--><g class="link" data-entity-1="ent0005" data-entity-2="ent0007" data-link-type="dependency" data-source-line="24" id="lnk18"><path d="M582.45,87.58 C548.77,108.84 503.5243,137.4081 469.7843,158.6981" fill="none" id="Admin Panel-to-Frontend (React/Vue)" style="stroke:#181818;stroke-width:1;"/><polygon fill="#181818" points="464.71,161.9,474.456,160.48,468.9385,159.2318,470.1868,153.7144,464.71,161.9" style="stroke:#181818;stroke-width:1;"/></g><!--link Frontend (React/Vue) to Backend API (Node/Python)--><g class="link" data-entity-1="ent0007" data-entity-2="ent0008" data-link-type="dependency" data-source-line="26" id="lnk19"><path d="M429,209.07 C429,226.57 429,244.67 429,262.15" fill="none" id="Frontend (React/Vue)-to-Backend API (Node/Python)" style="stroke:#181818;stroke-width:1;"/><polygon fill="#181818" points="429,268.15,433,259.15,429,263.15,425,259.15,429,268.15" style="stroke:#181818;stroke-width:1;"/></g><!--link Backend API (Node/Python) to Auth Module (Demo)--><g class="link" data-entity-1="ent0008" data-entity-2="ent0009" data-link-type="dependency" data-source-line="27" id="lnk20"><path d="M360.87,315.37 C308.2,332.86 241.3343,355.0791 188.6943,372.5591" fill="none" id="Backend API (Node/Python)-to-Auth Module (Demo)" style="stroke:#181818;stroke-width:1;"/><polygon fill="#181818" points="183,374.45,192.802,375.4099,187.7452,372.8743,190.2808,367.8175,183,374.45" style="stroke:#181818;stroke-width:1;"/></g><!--link Backend API (Node/Python) to Inspection Service--><g class="link" data-entity-1="ent0008" data-entity-2="ent0010" data-link-type="dependency" data-source-line="28" id="lnk21"><path d="M406.87,315.37 C389.76,332.86 370.3858,352.681 353.2858,370.161" fill="none" id="Backend API (Node/Python)-to-Inspection Service" style="stroke:#181818;stroke-width:1;"/><polygon fill="#181818" points="349.09,374.45,358.243,370.8137,352.5865,370.8758,352.5243,365.2193,349.09,374.45" style="stroke:#181818;stroke-width:1;"/></g><!--link Backend API (Node/Python) to Dashboard Service--><g class="link" data-entity-1="ent0008" data-entity-2="ent0011" data-link-type="dependency" data-source-line="29" id="lnk22"><path d="M451.35,315.37 C468.63,332.86 488.2143,352.7006 505.4743,370.1806" fill="none" id="Backend API (Node/Python)-to-Dashboard Service" style="stroke:#181818;stroke-width:1;"/><polygon fill="#181818" points="509.69,374.45,506.2127,365.2354,506.1769,370.8921,500.5202,370.8563,509.69,374.45" style="stroke:#181818;stroke-width:1;"/></g><!--link Backend API (Node/Python) to School Service--><g class="link" data-entity-1="ent0008" data-entity-2="ent0012" data-link-type="dependency" data-source-line="30" id="lnk23"><path d="M493.23,315.37 C542.88,332.86 605.6209,354.9764 655.2409,372.4564" fill="none" id="Backend API (Node/Python)-to-School Service" style="stroke:#181818;stroke-width:1;"/><polygon fill="#181818" points="660.9,374.45,653.7404,367.6869,656.1841,372.7887,651.0823,375.2324,660.9,374.45" style="stroke:#181818;stroke-width:1;"/></g><!--link Inspection Service to DB--><g class="link" data-entity-1="ent0010" data-entity-2="ent0014" data-link-type="dependency" data-source-line="32" id="lnk24"><path d="M368.26,421.61 C407.39,443.03 460.5566,472.1196 499.3866,493.3696" fill="none" id="Inspection Service-to-DB" style="stroke:#181818;stroke-width:1;"/><polygon fill="#181818" points="504.65,496.25,498.6752,488.4204,500.2639,493.8496,494.8346,495.4383,504.65,496.25" style="stroke:#181818;stroke-width:1;"/></g><!--link Dashboard Service to DB--><g class="link" data-entity-1="ent0011" data-entity-2="ent0014" data-link-type="dependency" data-source-line="33" id="lnk25"><path d="M534.45,421.47 C536.78,442.94 539.6403,469.1353 541.9603,490.4353" fill="none" id="Dashboard Service-to-DB" style="stroke:#181818;stroke-width:1;"/><polygon fill="#181818" points="542.61,496.4,545.612,487.0198,542.0686,491.4294,537.659,487.886,542.61,496.4" style="stroke:#181818;stroke-width:1;"/></g><!--link School Service to DB--><g class="link" data-entity-1="ent0012" data-entity-2="ent0014" data-link-type="dependency" data-source-line="34" id="lnk26"><path d="M691.14,421.47 C658.86,442.87 615.5309,471.5847 583.4009,492.8847" fill="none" id="School Service-to-DB" style="stroke:#181818;stroke-width:1;"/><polygon fill="#181818" points="578.4,496.2,588.1115,494.561,582.5674,493.4373,583.6912,487.8932,578.4,496.2" style="stroke:#181818;stroke-width:1;"/></g><!--link Inspection Service to Image Storage--><g class="link" data-entity-1="ent0010" data-entity-2="ent0015" data-link-type="dependency" data-source-line="35" id="lnk27"><path d="M324.55,421.47 C322.23,442.8 319.4,468.7353 317.08,490.0253" fill="none" id="Inspection Service-to-Image Storage" style="stroke:#181818;stroke-width:1;"/><polygon fill="#181818" points="316.43,495.99,321.3814,487.4763,316.9717,491.0194,313.4285,486.6096,316.43,495.99" style="stroke:#181818;stroke-width:1;"/></g><?plantuml-src XPB1QiCm38RlUGhHKtSeUOD1sb0eT2DRs7OOFIYnI4mTApZEHZVsxdCTQBFEJK_6d_p_4h_SxQLkqM031PRxod2lnOeL6_YifQMeTHGhWjbAIT8MjdWWCuFl2E1z9Qty8WrlL43IjhiZo_f2oH9IxEg2qGXusNYUY4Pgo52JsaK_qTdN2Pq0hMJzntnjM5lI0kRFXAMDNtkwyqvBfppo9Dl0_945nTd1rgo7QjBR6XvOz8fWdbB30zxehgNIDyd9VCYIF3wFEQPvMJEhCngFcwB5yPp2tGliN2NZpbQ6ygSjnB2MXZoEOSibAaYNCy3E7NwQvkYLMpRkzFx_ieJ5ulvQ2C6G9mNZzASUHc4-I2Q2dwWDsj1QRef2Ixif2gpqfkPouL6ejN_gzXVeS2fT69tuDRkBd_0B?></g></svg>