<svg xmlns="http://www.w3.org/2000/svg" xmlns:xlink="http://www.w3.org/1999/xlink" contentStyleType="text/css" data-diagram-type="SEQUENCE" height="750px" preserveAspectRatio="none" style="width:985px;height:750px;background:#FFFFFF;" version="1.1" viewBox="0 0 985 750" width="985px" zoomAndPan="magnify"><?plantuml 1.2026.3beta4?><defs/><g><g class="participant-lifeline" data-entity-uid="part1" data-qualified-name="Citizen" id="part1-lifeline"><g><title>Fuqaro</title><rect fill="#000000" fill-opacity="0.00000" height="586.5234" width="8" x="28.3564" y="81.2969"/><line style="stroke:#181818;stroke-width:0.5;stroke-dasharray:5,5;" x1="32" x2="32" y1="81.2969" y2="667.8203"/></g></g><g class="participant-lifeline" data-entity-uid="part2" data-qualified-name="UI" id="part2-lifeline"><g><title>Web.Mobile UI</title><rect fill="#000000" fill-opacity="0.00000" height="586.5234" width="8" x="276.2002" y="81.2969"/><line style="stroke:#181818;stroke-width:0.5;stroke-dasharray:5,5;" x1="279.7954" x2="279.7954" y1="81.2969" y2="667.8203"/></g></g><g class="participant-lifeline" data-entity-uid="part3" data-qualified-name="API" id="part3-lifeline"><g><title>API Server</title><rect fill="#000000" fill-opacity="0.00000" height="586.5234" width="8" x="513.4434" y="81.2969"/><line style="stroke:#181818;stroke-width:0.5;stroke-dasharray:5,5;" x1="517.189" x2="517.189" y1="81.2969" y2="667.8203"/></g></g><g class="participant-lifeline" data-entity-uid="part4" data-qualified-name="DB" id="part4-lifeline"><g><title>Database</title><rect fill="#000000" fill-opacity="0.00000" height="586.5234" width="8" x="719.2847" y="81.2969"/><line style="stroke:#181818;stroke-width:0.5;stroke-dasharray:5,5;" x1="722.8843" x2="722.8843" y1="81.2969" y2="667.8203"/></g></g><g class="participant-lifeline" data-entity-uid="part5" data-qualified-name="DASH" id="part5-lifeline"><g><title>Dashboard Service</title><rect fill="#000000" fill-opacity="0.00000" height="586.5234" width="8" x="897.209" y="81.2969"/><line style="stroke:#181818;stroke-width:0.5;stroke-dasharray:5,5;" x1="901.0132" x2="901.0132" y1="81.2969" y2="667.8203"/></g></g><g class="participant participant-head" data-entity-uid="part1" data-qualified-name="Citizen" id="part1-head"><text fill="#000000" font-family="sans-serif" font-size="14" lengthAdjust="spacing" textLength="48.7129" x="5" y="77.9951">Fuqaro</text><ellipse cx="32.3564" cy="13.5" fill="#E2E2F0" rx="8" ry="8" style="stroke:#181818;stroke-width:0.5;"/><path d="M32.3564,21.5 L32.3564,48.5 M19.3564,29.5 L45.3564,29.5 M32.3564,48.5 L19.3564,63.5 M32.3564,48.5 L45.3564,63.5" fill="none" style="stroke:#181818;stroke-width:0.5;"/></g><g class="participant participant-tail" data-entity-uid="part1" data-qualified-name="Citizen" id="part1-tail"><text fill="#000000" font-family="sans-serif" font-size="14" lengthAdjust="spacing" textLength="48.7129" x="5" y="679.8154">Fuqaro</text><ellipse cx="32.3564" cy="691.6172" fill="#E2E2F0" rx="8" ry="8" style="stroke:#181818;stroke-width:0.5;"/><path d="M32.3564,699.6172 L32.3564,726.6172 M19.3564,707.6172 L45.3564,707.6172 M32.3564,726.6172 L19.3564,741.6172 M32.3564,726.6172 L45.3564,741.6172" fill="none" style="stroke:#181818;stroke-width:0.5;"/></g><g class="participant participant-head" data-entity-uid="part2" data-qualified-name="UI" id="part2-head"><rect fill="#E2E2F0" height="30.2969" rx="2.5" ry="2.5" style="stroke:#181818;stroke-width:0.5;" width="114.8096" x="222.7954" y="50"/><text fill="#000000" font-family="sans-serif" font-size="14" lengthAdjust="spacing" textLength="100.8096" x="229.7954" y="69.9951">Web/Mobile UI</text></g><g class="participant participant-tail" data-entity-uid="part2" data-qualified-name="UI" id="part2-tail"><rect fill="#E2E2F0" height="30.2969" rx="2.5" ry="2.5" style="stroke:#181818;stroke-width:0.5;" width="114.8096" x="222.7954" y="666.8203"/><text fill="#000000" font-family="sans-serif" font-size="14" lengthAdjust="spacing" textLength="100.8096" x="229.7954" y="686.8154">Web/Mobile UI</text></g><g class="participant participant-head" data-entity-uid="part3" data-qualified-name="API" id="part3-head"><rect fill="#E2E2F0" height="30.2969" rx="2.5" ry="2.5" style="stroke:#181818;stroke-width:0.5;" width="86.5088" x="474.189" y="50"/><text fill="#000000" font-family="sans-serif" font-size="14" lengthAdjust="spacing" textLength="72.5088" x="481.189" y="69.9951">API Server</text></g><g class="participant participant-tail" data-entity-uid="part3" data-qualified-name="API" id="part3-tail"><rect fill="#E2E2F0" height="30.2969" rx="2.5" ry="2.5" style="stroke:#181818;stroke-width:0.5;" width="86.5088" x="474.189" y="666.8203"/><text fill="#000000" font-family="sans-serif" font-size="14" lengthAdjust="spacing" textLength="72.5088" x="481.189" y="686.8154">API Server</text></g><g class="participant participant-head" data-entity-uid="part4" data-qualified-name="DB" id="part4-head"><text fill="#000000" font-family="sans-serif" font-size="14" lengthAdjust="spacing" textLength="66.8008" x="686.8843" y="77.9951">Database</text><path d="M705.2847,29 C705.2847,19 723.2847,19 723.2847,19 C723.2847,19 741.2847,19 741.2847,29 L741.2847,55 C741.2847,65 723.2847,65 723.2847,65 C723.2847,65 705.2847,65 705.2847,55 L705.2847,29" fill="#E2E2F0" style="stroke:#181818;stroke-width:0.5;"/><path d="M705.2847,29 C705.2847,39 723.2847,39 723.2847,39 C723.2847,39 741.2847,39 741.2847,29" fill="none" style="stroke:#181818;stroke-width:0.5;"/></g><g class="participant participant-tail" data-entity-uid="part4" data-qualified-name="DB" id="part4-tail"><text fill="#000000" font-family="sans-serif" font-size="14" lengthAdjust="spacing" textLength="66.8008" x="686.8843" y="679.8154">Database</text><path d="M705.2847,693.1172 C705.2847,683.1172 723.2847,683.1172 723.2847,683.1172 C723.2847,683.1172 741.2847,683.1172 741.2847,693.1172 L741.2847,719.1172 C741.2847,729.1172 723.2847,729.1172 723.2847,729.1172 C723.2847,729.1172 705.2847,729.1172 705.2847,719.1172 L705.2847,693.1172" fill="#E2E2F0" style="stroke:#181818;stroke-width:0.5;"/><path d="M705.2847,693.1172 C705.2847,703.1172 723.2847,703.1172 723.2847,703.1172 C723.2847,703.1172 741.2847,703.1172 741.2847,693.1172" fill="none" style="stroke:#181818;stroke-width:0.5;"/></g><g class="participant participant-head" data-entity-uid="part5" data-qualified-name="DASH" id="part5-head"><rect fill="#E2E2F0" height="30.2969" rx="2.5" ry="2.5" style="stroke:#181818;stroke-width:0.5;" width="146.3916" x="828.0132" y="50"/><text fill="#000000" font-family="sans-serif" font-size="14" lengthAdjust="spacing" textLength="132.3916" x="835.0132" y="69.9951">Dashboard Service</text></g><g class="participant participant-tail" data-entity-uid="part5" data-qualified-name="DASH" id="part5-tail"><rect fill="#E2E2F0" height="30.2969" rx="2.5" ry="2.5" style="stroke:#181818;stroke-width:0.5;" width="146.3916" x="828.0132" y="666.8203"/><text fill="#000000" font-family="sans-serif" font-size="14" lengthAdjust="spacing" textLength="132.3916" x="835.0132" y="686.8154">Dashboard Service</text></g><g class="message" data-entity-1="part1" data-entity-2="part2" id="msg1"><polygon fill="#181818" points="268.2002,108.4297,278.2002,112.4297,268.2002,116.4297,272.2002,112.4297" style="stroke:#181818;stroke-width:1;"/><line style="stroke:#181818;stroke-width:1;" x1="32.3564" x2="274.2002" y1="112.4297" y2="112.4297"/><text fill="#000000" font-family="sans-serif" font-size="13" lengthAdjust="spacing" textLength="116.4478" x="39.3564" y="107.3638">Maktabni tanlaydi</text></g><g class="message" data-entity-1="part2" data-entity-2="part3" id="msg2"><polygon fill="#181818" points="505.4434,137.5625,515.4434,141.5625,505.4434,145.5625,509.4434,141.5625" style="stroke:#181818;stroke-width:1;"/><line style="stroke:#181818;stroke-width:1;" x1="280.2002" x2="511.4434" y1="141.5625" y2="141.5625"/><text fill="#000000" font-family="sans-serif" font-size="13" lengthAdjust="spacing" textLength="115.978" x="287.2002" y="136.4966">GET /schools/{id}</text></g><g class="message" data-entity-1="part3" data-entity-2="part4" id="msg3"><polygon fill="#181818" points="711.2847,166.6953,721.2847,170.6953,711.2847,174.6953,715.2847,170.6953" style="stroke:#181818;stroke-width:1;"/><line style="stroke:#181818;stroke-width:1;" x1="517.4434" x2="717.2847" y1="170.6953" y2="170.6953"/><text fill="#000000" font-family="sans-serif" font-size="13" lengthAdjust="spacing" textLength="181.8413" x="524.4434" y="165.6294">Maktab ma'lumotlarini oladi</text></g><g class="message" data-entity-1="part4" data-entity-2="part3" id="msg4"><polygon fill="#181818" points="528.4434,195.8281,518.4434,199.8281,528.4434,203.8281,524.4434,199.8281" style="stroke:#181818;stroke-width:1;"/><line style="stroke:#181818;stroke-width:1;stroke-dasharray:2,2;" x1="522.4434" x2="722.2847" y1="199.8281" y2="199.8281"/><text fill="#000000" font-family="sans-serif" font-size="13" lengthAdjust="spacing" textLength="144.0918" x="534.4434" y="194.7622">School + PromiseItem</text></g><g class="message" data-entity-1="part3" data-entity-2="part2" id="msg5"><polygon fill="#181818" points="291.2002,224.9609,281.2002,228.9609,291.2002,232.9609,287.2002,228.9609" style="stroke:#181818;stroke-width:1;"/><line style="stroke:#181818;stroke-width:1;stroke-dasharray:2,2;" x1="285.2002" x2="516.4434" y1="228.9609" y2="228.9609"/><text fill="#000000" font-family="sans-serif" font-size="13" lengthAdjust="spacing" textLength="117.3809" x="297.2002" y="223.895">Maktab tafsilotlari</text></g><g class="message" data-entity-1="part1" data-entity-2="part2" id="msg6"><polygon fill="#181818" points="268.2002,254.0938,278.2002,258.0938,268.2002,262.0938,272.2002,258.0938" style="stroke:#181818;stroke-width:1;"/><line style="stroke:#181818;stroke-width:1;" x1="32.3564" x2="274.2002" y1="258.0938" y2="258.0938"/><text fill="#000000" font-family="sans-serif" font-size="13" lengthAdjust="spacing" textLength="223.8438" x="39.3564" y="253.0278">"Buni tekshirish" tugmasini bosadi</text></g><g class="message" data-entity-1="part1" data-entity-2="part2" id="msg7"><polygon fill="#181818" points="268.2002,283.2266,278.2002,287.2266,268.2002,291.2266,272.2002,287.2266" style="stroke:#181818;stroke-width:1;"/><line style="stroke:#181818;stroke-width:1;" x1="32.3564" x2="274.2002" y1="287.2266" y2="287.2266"/><text fill="#000000" font-family="sans-serif" font-size="13" lengthAdjust="spacing" textLength="201.2334" x="39.3564" y="282.1606">Status + izoh + surat yuboradi</text></g><g class="message" data-entity-1="part2" data-entity-2="part3" id="msg8"><polygon fill="#181818" points="505.4434,312.3594,515.4434,316.3594,505.4434,320.3594,509.4434,316.3594" style="stroke:#181818;stroke-width:1;"/><line style="stroke:#181818;stroke-width:1;" x1="280.2002" x2="511.4434" y1="316.3594" y2="316.3594"/><text fill="#000000" font-family="sans-serif" font-size="13" lengthAdjust="spacing" textLength="116.4731" x="287.2002" y="311.2935">POST /inspections</text></g><g class="message" data-entity-1="part3" data-entity-2="part3" id="msg9"><line style="stroke:#181818;stroke-width:1;" x1="517.4434" x2="559.4434" y1="345.4922" y2="345.4922"/><line style="stroke:#181818;stroke-width:1;" x1="559.4434" x2="559.4434" y1="345.4922" y2="358.4922"/><line style="stroke:#181818;stroke-width:1;" x1="518.4434" x2="559.4434" y1="358.4922" y2="358.4922"/><polygon fill="#181818" points="528.4434,354.4922,518.4434,358.4922,528.4434,362.4922,524.4434,358.4922" style="stroke:#181818;stroke-width:1;"/><text fill="#000000" font-family="sans-serif" font-size="13" lengthAdjust="spacing" textLength="185.9863" x="524.4434" y="340.4263">Ma'lumotni validatsiya qiladi</text></g><g class="message" data-entity-1="part3" data-entity-2="part4" id="msg10"><polygon fill="#181818" points="711.2847,383.625,721.2847,387.625,711.2847,391.625,715.2847,387.625" style="stroke:#181818;stroke-width:1;"/><line style="stroke:#181818;stroke-width:1;" x1="517.4434" x2="717.2847" y1="387.625" y2="387.625"/><text fill="#000000" font-family="sans-serif" font-size="13" lengthAdjust="spacing" textLength="125.1758" x="524.4434" y="382.5591">Inspection yaratadi</text></g><g class="message" data-entity-1="part4" data-entity-2="part3" id="msg11"><polygon fill="#181818" points="528.4434,412.7578,518.4434,416.7578,528.4434,420.7578,524.4434,416.7578" style="stroke:#181818;stroke-width:1;"/><line style="stroke:#181818;stroke-width:1;stroke-dasharray:2,2;" x1="522.4434" x2="722.2847" y1="416.7578" y2="416.7578"/><text fill="#000000" font-family="sans-serif" font-size="13" lengthAdjust="spacing" textLength="125.9502" x="534.4434" y="411.6919">Inspection saqlandi</text></g><g class="message" data-entity-1="part3" data-entity-2="part4" id="msg12"><polygon fill="#181818" points="711.2847,441.8906,721.2847,445.8906,711.2847,449.8906,715.2847,445.8906" style="stroke:#181818;stroke-width:1;"/><line style="stroke:#181818;stroke-width:1;" x1="517.4434" x2="717.2847" y1="445.8906" y2="445.8906"/><text fill="#000000" font-family="sans-serif" font-size="13" lengthAdjust="spacing" textLength="162.481" x="524.4434" y="440.8247">Photo metadata saqlaydi</text></g><g class="message" data-entity-1="part4" data-entity-2="part3" id="msg13"><polygon fill="#181818" points="528.4434,471.0234,518.4434,475.0234,528.4434,479.0234,524.4434,475.0234" style="stroke:#181818;stroke-width:1;"/><line style="stroke:#181818;stroke-width:1;stroke-dasharray:2,2;" x1="522.4434" x2="722.2847" y1="475.0234" y2="475.0234"/><text fill="#000000" font-family="sans-serif" font-size="13" lengthAdjust="spacing" textLength="95.8877" x="534.4434" y="469.9575">Photo saqlandi</text></g><g class="message" data-entity-1="part3" data-entity-2="part5" id="msg14"><polygon fill="#181818" points="889.209,500.1563,899.209,504.1563,889.209,508.1563,893.209,504.1563" style="stroke:#181818;stroke-width:1;"/><line style="stroke:#181818;stroke-width:1;" x1="517.4434" x2="895.209" y1="504.1563" y2="504.1563"/><text fill="#000000" font-family="sans-serif" font-size="13" lengthAdjust="spacing" textLength="139.3374" x="524.4434" y="499.0903">Statistikani yangilash</text></g><g class="message" data-entity-1="part5" data-entity-2="part4" id="msg15"><polygon fill="#181818" points="734.2847,529.2891,724.2847,533.2891,734.2847,537.2891,730.2847,533.2891" style="stroke:#181818;stroke-width:1;"/><line style="stroke:#181818;stroke-width:1;" x1="728.2847" x2="900.209" y1="533.2891" y2="533.2891"/><text fill="#000000" font-family="sans-serif" font-size="13" lengthAdjust="spacing" textLength="153.9243" x="740.2847" y="528.2231">Aggregation / hisoblash</text></g><g class="message" data-entity-1="part4" data-entity-2="part5" id="msg16"><polygon fill="#181818" points="889.209,558.4219,899.209,562.4219,889.209,566.4219,893.209,562.4219" style="stroke:#181818;stroke-width:1;"/><line style="stroke:#181818;stroke-width:1;stroke-dasharray:2,2;" x1="723.2847" x2="895.209" y1="562.4219" y2="562.4219"/><text fill="#000000" font-family="sans-serif" font-size="13" lengthAdjust="spacing" textLength="137.833" x="730.2847" y="557.356">Yangilangan natijalar</text></g><g class="message" data-entity-1="part5" data-entity-2="part3" id="msg17"><polygon fill="#181818" points="528.4434,587.5547,518.4434,591.5547,528.4434,595.5547,524.4434,591.5547" style="stroke:#181818;stroke-width:1;"/><line style="stroke:#181818;stroke-width:1;stroke-dasharray:2,2;" x1="522.4434" x2="900.209" y1="591.5547" y2="591.5547"/><text fill="#000000" font-family="sans-serif" font-size="13" lengthAdjust="spacing" textLength="142.3335" x="534.4434" y="586.4888">Dashboard yangilandi</text></g><g class="message" data-entity-1="part3" data-entity-2="part2" id="msg18"><polygon fill="#181818" points="291.2002,616.6875,281.2002,620.6875,291.2002,624.6875,287.2002,620.6875" style="stroke:#181818;stroke-width:1;"/><line style="stroke:#181818;stroke-width:1;stroke-dasharray:2,2;" x1="285.2002" x2="516.4434" y1="620.6875" y2="620.6875"/><text fill="#000000" font-family="sans-serif" font-size="13" lengthAdjust="spacing" textLength="213.2432" x="297.2002" y="615.6216">201 Created + success message</text></g><g class="message" data-entity-1="part2" data-entity-2="part1" id="msg19"><polygon fill="#181818" points="43.3564,645.8203,33.3564,649.8203,43.3564,653.8203,39.3564,649.8203" style="stroke:#181818;stroke-width:1;"/><line style="stroke:#181818;stroke-width:1;stroke-dasharray:2,2;" x1="37.3564" x2="279.2002" y1="649.8203" y2="649.8203"/><text fill="#000000" font-family="sans-serif" font-size="13" lengthAdjust="spacing" textLength="91.165" x="49.3564" y="644.7544">"Yozib olindi!"</text></g><?plantuml-src PLBDZfim4BxxAQPSUgXMsVQuXqf9wBOSeaQYKRN70LoOOkp4OxOYLT-zWu7T97l2wFiTZxabUqIF7HHOjhLtlQsspZWFVneAMc4Pv9myzYVqBW5as5AWixPAL85AEg8DaFpKnMhd2Z8Q3bca7R9hndgVGQxzi_OHbbzLOS02MKEIpgS8fPjhPOhS50vz5VLKpgnr_asfkGpSVPR01zXXAqQM8A0rE5Ia3jc8ITe3VFto0rPSDiuPNlsbwfyQEmcQRXObTFZUz9qB1Zs9ZJCe7ka6xXQJFEhX0-ozwuXr5dGt-LnLa0A_cCnazAPcikd7ZhhbXZnnaq3ewmvvZ2mSZvatYZnWw5bYwUmQ-N3lCS3G5yxZzPJxxxcCIPQFkWpaBAjbp0ZlvW4bwHaDoGgO1eGJnKalBYHxSO11taUulOWBdF5aq0f-gTytBZZej0X5F7666u-9yrOkgvr69WxKedGTqDPIaHirWal6kgwzhZ6MM453x8g9CsLCFa-JrDPemGhtDyfEPfkboEiJcuDUwymB-7J_4RPUOz1LlFworCmo7ZFMEjw_4EUboOAVt9aAUJuaHk-I_m00?></g></svg>