<svg xmlns="http://www.w3.org/2000/svg" xmlns:xlink="http://www.w3.org/1999/xlink" contentStyleType="text/css" data-diagram-type="STATE" height="741px" preserveAspectRatio="none" style="width:573px;height:741px;background:#FFFFFF;" version="1.1" viewBox="0 0 573 741" width="573px" zoomAndPan="magnify"><?plantuml 1.2026.3beta4?><defs/><g><g class="start_entity" data-qualified-name=".start." data-source-line="2" id="ent0002"><ellipse cx="271.91" cy="16" fill="#222222" rx="10" ry="10" style="stroke:#222222;stroke-width:1;"/></g><g class="entity" data-qualified-name="Draft" id="ent0003"><rect fill="#F1F1F1" height="50" rx="12.5" ry="12.5" style="stroke:#181818;stroke-width:0.5;" width="55.5332" x="244.14" y="87"/><line style="stroke:#181818;stroke-width:0.5;" x1="244.14" x2="299.6732" y1="113.2969" y2="113.2969"/><text fill="#000000" font-family="sans-serif" font-size="14" lengthAdjust="spacing" textLength="35.5332" x="254.14" y="104.9951">Draft</text></g><g class="entity" data-qualified-name="Submitted" id="ent0005"><rect fill="#F1F1F1" height="50" rx="12.5" ry="12.5" style="stroke:#181818;stroke-width:0.5;" width="92.6523" x="225.58" y="214"/><line style="stroke:#181818;stroke-width:0.5;" x1="225.58" x2="318.2323" y1="240.2969" y2="240.2969"/><text fill="#000000" font-family="sans-serif" font-size="14" lengthAdjust="spacing" textLength="72.6523" x="235.58" y="231.9951">Submitted</text></g><g class="entity" data-qualified-name="PendingReview" id="ent0007"><rect fill="#F1F1F1" height="50" rx="12.5" ry="12.5" style="stroke:#181818;stroke-width:0.5;" width="127.0439" x="208.39" y="341"/><line style="stroke:#181818;stroke-width:0.5;" x1="208.39" x2="335.4339" y1="367.2969" y2="367.2969"/><text fill="#000000" font-family="sans-serif" font-size="14" lengthAdjust="spacing" textLength="107.0439" x="218.39" y="358.9951">PendingReview</text></g><g class="entity" data-qualified-name="ApprovedCompleted" id="ent0009"><rect fill="#F1F1F1" height="50" rx="12.5" ry="12.5" style="stroke:#181818;stroke-width:0.5;" width="163.8145" x="7" y="483"/><line style="stroke:#181818;stroke-width:0.5;" x1="7" x2="170.8145" y1="509.2969" y2="509.2969"/><text fill="#000000" font-family="sans-serif" font-size="14" lengthAdjust="spacing" textLength="143.8145" x="17" y="500.9951">ApprovedCompleted</text></g><g class="entity" data-qualified-name="ApprovedProblem" id="ent0011"><rect fill="#F1F1F1" height="50" rx="12.5" ry="12.5" style="stroke:#181818;stroke-width:0.5;" width="145.248" x="206.28" y="483"/><line style="stroke:#181818;stroke-width:0.5;" x1="206.28" x2="351.528" y1="509.2969" y2="509.2969"/><text fill="#000000" font-family="sans-serif" font-size="14" lengthAdjust="spacing" textLength="125.248" x="216.28" y="500.9951">ApprovedProblem</text></g><g class="entity" data-qualified-name="Rejected" id="ent0013"><rect fill="#F1F1F1" height="50" rx="12.5" ry="12.5" style="stroke:#181818;stroke-width:0.5;" width="81.5303" x="386.14" y="483"/><line style="stroke:#181818;stroke-width:0.5;" x1="386.14" x2="467.6703" y1="509.2969" y2="509.2969"/><text fill="#000000" font-family="sans-serif" font-size="14" lengthAdjust="spacing" textLength="61.5303" x="396.14" y="500.9951">Rejected</text></g><g class="entity" data-qualified-name="Archived" id="ent0015"><rect fill="#F1F1F1" height="50" rx="12.5" ry="12.5" style="stroke:#181818;stroke-width:0.5;" width="81.5781" x="238.12" y="594"/><line style="stroke:#181818;stroke-width:0.5;" x1="238.12" x2="319.6981" y1="620.2969" y2="620.2969"/><text fill="#000000" font-family="sans-serif" font-size="14" lengthAdjust="spacing" textLength="61.5781" x="248.12" y="611.9951">Archived</text></g><g class="end_entity" data-qualified-name=".end." data-source-line="14" id="ent0019"><ellipse cx="278.91" cy="716" fill="none" rx="11" ry="11" style="stroke:#222222;stroke-width:1;"/><ellipse cx="278.91" cy="716" fill="#222222" rx="6" ry="6" style="stroke:#222222;stroke-width:1;"/></g><!--link *start* to Draft--><g class="link" data-entity-1="ent0002" data-entity-2="ent0003" data-link-type="dependency" data-source-line="2" id="lnk4"><path d="M271.91,26.36 C271.91,40.29 271.91,60.95 271.91,80.65" fill="none" id="*start*-to-Draft" style="stroke:#181818;stroke-width:1;"/><polygon fill="#181818" points="271.91,86.65,275.91,77.65,271.91,81.65,267.91,77.65,271.91,86.65" style="stroke:#181818;stroke-width:1;"/></g><!--link Draft to Submitted--><g class="link" data-entity-1="ent0003" data-entity-2="ent0005" data-link-type="dependency" data-source-line="4" id="lnk6"><path d="M271.91,137.4 C271.91,159.42 271.91,185.66 271.91,207.66" fill="none" id="Draft-to-Submitted" style="stroke:#181818;stroke-width:1;"/><polygon fill="#181818" points="271.91,213.66,275.91,204.66,271.91,208.66,267.91,204.66,271.91,213.66" style="stroke:#181818;stroke-width:1;"/><text fill="#000000" font-family="sans-serif" font-size="13" lengthAdjust="spacing" textLength="144.6694" x="272.91" y="180.0669">foydalanuvchi yubordi</text></g><!--link Submitted to PendingReview--><g class="link" data-entity-1="ent0005" data-entity-2="ent0007" data-link-type="dependency" data-source-line="5" id="lnk8"><path d="M271.91,264.4 C271.91,286.42 271.91,312.66 271.91,334.66" fill="none" id="Submitted-to-PendingReview" style="stroke:#181818;stroke-width:1;"/><polygon fill="#181818" points="271.91,340.66,275.91,331.66,271.91,335.66,267.91,331.66,271.91,340.66" style="stroke:#181818;stroke-width:1;"/><text fill="#000000" font-family="sans-serif" font-size="13" lengthAdjust="spacing" textLength="103.7334" x="272.91" y="307.0669">tizim qabul qildi</text></g><!--link PendingReview to ApprovedCompleted--><g class="link" data-entity-1="ent0007" data-entity-2="ent0009" data-link-type="dependency" data-source-line="6" id="lnk10"><path d="M208.13,379.03 C180.39,387 149.2,400 126.91,421 C109.32,437.57 100.9643,457.9357 95.6943,477.0557" fill="none" id="PendingReview-to-ApprovedCompleted" style="stroke:#181818;stroke-width:1;"/><polygon fill="#181818" points="94.1,482.84,100.3477,475.2264,95.4286,478.0197,92.6353,473.1007,94.1,482.84" style="stroke:#181818;stroke-width:1;"/><text fill="#000000" font-family="sans-serif" font-size="13" lengthAdjust="spacing" textLength="108.2593" x="139.193" y="434.0669">admin tasdiqladi</text><text fill="#000000" font-family="sans-serif" font-size="13" lengthAdjust="spacing" textLength="130.8252" x="127.91" y="449.1997">status=COMPLETED</text></g><!--link PendingReview to ApprovedProblem--><g class="link" data-entity-1="ent0007" data-entity-2="ent0011" data-link-type="dependency" data-source-line="7" id="lnk12"><path d="M269.44,391.14 C268.07,408.4 266.99,432.17 268.91,453 C269.81,462.78 270.4405,467.5431 272.2605,476.7831" fill="none" id="PendingReview-to-ApprovedProblem" style="stroke:#181818;stroke-width:1;"/><polygon fill="#181818" points="273.42,482.67,275.6053,473.0666,272.4537,477.7643,267.7561,474.6127,273.42,482.67" style="stroke:#181818;stroke-width:1;"/><text fill="#000000" font-family="sans-serif" font-size="13" lengthAdjust="spacing" textLength="108.2593" x="272.5475" y="434.0669">admin tasdiqladi</text><text fill="#000000" font-family="sans-serif" font-size="13" lengthAdjust="spacing" textLength="113.5342" x="269.91" y="449.1997">status=PROBLEM</text></g><!--link PendingReview to Rejected--><g class="link" data-entity-1="ent0007" data-entity-2="ent0013" data-link-type="dependency" data-source-line="8" id="lnk14"><path d="M335.73,387.08 C354.3,395.3 373.45,406.4 387.91,421 C404.86,438.13 413.4675,458.1986 419.1975,477.0786" fill="none" id="PendingReview-to-Rejected" style="stroke:#181818;stroke-width:1;"/><polygon fill="#181818" points="420.94,482.82,422.1539,473.0462,419.4879,478.0355,414.4987,475.3696,420.94,482.82" style="stroke:#181818;stroke-width:1;"/><text fill="#000000" font-family="sans-serif" font-size="13" lengthAdjust="spacing" textLength="147.1006" x="409.91" y="441.5669">noto'g'ri / yetarli emas</text></g><!--link ApprovedCompleted to Archived--><g class="link" data-entity-1="ent0009" data-entity-2="ent0015" data-link-type="dependency" data-source-line="10" id="lnk16"><path d="M131.55,533.46 C163.28,551.66 201.1359,573.3839 232.5059,591.3839" fill="none" id="ApprovedCompleted-to-Archived" style="stroke:#181818;stroke-width:1;"/><polygon fill="#181818" points="237.71,594.37,231.8945,586.4214,233.3732,591.8816,227.913,593.3602,237.71,594.37" style="stroke:#181818;stroke-width:1;"/></g><!--link ApprovedProblem to Archived--><g class="link" data-entity-1="ent0011" data-entity-2="ent0015" data-link-type="dependency" data-source-line="11" id="lnk17"><path d="M278.91,533.46 C278.91,551.41 278.91,569.69 278.91,587.62" fill="none" id="ApprovedProblem-to-Archived" style="stroke:#181818;stroke-width:1;"/><polygon fill="#181818" points="278.91,593.62,282.91,584.62,278.91,588.62,274.91,584.62,278.91,593.62" style="stroke:#181818;stroke-width:1;"/></g><!--link Rejected to Archived--><g class="link" data-entity-1="ent0013" data-entity-2="ent0015" data-link-type="dependency" data-source-line="12" id="lnk18"><path d="M393.69,533.46 C369.32,551.41 341.1915,572.1324 316.8415,590.0624" fill="none" id="Rejected-to-Archived" style="stroke:#181818;stroke-width:1;"/><polygon fill="#181818" points="312.01,593.62,321.629,591.5045,316.0362,590.6553,316.8855,585.0626,312.01,593.62" style="stroke:#181818;stroke-width:1;"/></g><!--link Archived to *end*--><g class="link" data-entity-1="ent0015" data-entity-2="ent0019" data-link-type="dependency" data-source-line="14" id="lnk20"><path d="M278.91,644.46 C278.91,664.04 278.91,684.49 278.91,698.8" fill="none" id="Archived-to-*end*" style="stroke:#181818;stroke-width:1;"/><polygon fill="#181818" points="278.91,704.8,282.91,695.8,278.91,699.8,274.91,695.8,278.91,704.8" style="stroke:#181818;stroke-width:1;"/></g><?plantuml-src VL7BJiD03BplL_XMgLB57GaaQ7DhrIZb1XoyMJTrkuza7wd2rxDD1IY0Uh8r7i-Cx71Ysw970nBhK-DTichfjFDmFd0ayJf_XyNY4LOUzr68iOp0Bad3CPA2UzYxGQ56c_hwm30awRnYySEuy4koYcrJKSzqpZkHFzX0Xp9fw5Xd_fHnsNbgM-zwoe5Cg-dgXSgmXOX1SQTHyPiD4MCA3yljfbmNByNgXb3fdTHaRicKrVPvNMp-4QdeIFKrX7NHpPgPPxY3WI9wpK06Wn1_8u_-FXyce-9taCdmss22YgzkXFC_FW40?></g></svg>