<svg xmlns="http://www.w3.org/2000/svg" xmlns:xlink="http://www.w3.org/1999/xlink" contentStyleType="text/css" data-diagram-type="DESCRIPTION" height="1174px" preserveAspectRatio="none" style="width:554px;height:1174px;background:#FFFFFF;" version="1.1" viewBox="0 0 554 1174" width="554px" zoomAndPan="magnify"><?plantuml 1.2026.3beta4?><defs/><g><!--cluster Real Holat Platformasi--><g class="cluster" data-qualified-name="Real Holat Platformasi" data-source-line="9" id="ent0005"><rect fill="none" height="1153" rx="2.5" ry="2.5" style="stroke:#181818;stroke-width:1;" width="290.43" x="250.08" y="7"/><text fill="#000000" font-family="sans-serif" font-size="14" font-weight="700" lengthAdjust="spacing" textLength="177.5225" x="306.5338" y="21.9951">Real Holat Platformasi</text></g><!--entity UC1--><g class="entity" data-qualified-name="Real Holat Platformasi.UC1" data-source-line="10" id="ent0006"><ellipse cx="395.3024" cy="461.0025" fill="#F1F1F1" rx="106.6624" ry="23.7325" style="stroke:#181818;stroke-width:0.5;"/><text fill="#000000" font-family="sans-serif" font-size="14" lengthAdjust="spacing" textLength="190.6406" x="299.9821" y="465.6509">Maktablar ro'yxatini ko'rish</text></g><!--entity UC2--><g class="entity" data-qualified-name="Real Holat Platformasi.UC2" data-source-line="11" id="ent0007"><ellipse cx="395.3042" cy="543.0028" fill="#F1F1F1" rx="104.7642" ry="23.3528" style="stroke:#181818;stroke-width:0.5;"/><text fill="#000000" font-family="sans-serif" font-size="14" lengthAdjust="spacing" textLength="186.5049" x="302.0517" y="547.6513">Maktabni qidirish / filtrlash</text></g><!--entity UC3--><g class="entity" data-qualified-name="Real Holat Platformasi.UC3" data-source-line="12" id="ent0008"><ellipse cx="395.2982" cy="624.9996" fill="#F1F1F1" rx="106.3482" ry="23.6696" style="stroke:#181818;stroke-width:0.5;"/><text fill="#000000" font-family="sans-serif" font-size="14" lengthAdjust="spacing" textLength="189.957" x="300.3197" y="629.6481">Maktab tafsilotlarini ko'rish</text></g><!--entity UC4--><g class="entity" data-qualified-name="Real Holat Platformasi.UC4" data-source-line="13" id="ent0009"><ellipse cx="395.2997" cy="708.9999" fill="#F1F1F1" rx="113.7497" ry="25.1499" style="stroke:#181818;stroke-width:0.5;"/><text fill="#000000" font-family="sans-serif" font-size="14" lengthAdjust="spacing" textLength="205.9668" x="292.3163" y="713.6484">Va'da qilingan ishlarni ko'rish</text></g><!--entity UC5--><g class="entity" data-qualified-name="Real Holat Platformasi.UC5" data-source-line="14" id="ent0010"><ellipse cx="395.2978" cy="381.9996" fill="#F1F1F1" rx="87.3478" ry="19.8696" style="stroke:#181818;stroke-width:0.5;"/><text fill="#000000" font-family="sans-serif" font-size="14" lengthAdjust="spacing" textLength="147.7109" x="321.4424" y="386.648">Tekshiruvni boshlash</text></g><!--entity UC6--><g class="entity" data-qualified-name="Real Holat Platformasi.UC6" data-source-line="15" id="ent0011"><ellipse cx="395.2956" cy="207.0016" fill="#F1F1F1" rx="102.2356" ry="25.0216" style="stroke:#181818;stroke-width:0.5;"/><text fill="#000000" font-family="sans-serif" font-size="14" lengthAdjust="spacing" textLength="117.0654" x="336.7629" y="202.0155">Holatni belgilash</text><text fill="#000000" font-family="sans-serif" font-size="14" lengthAdjust="spacing" textLength="146.877" x="321.8571" y="218.3124">(Bajarildi / Muammo)</text></g><!--entity UC7--><g class="entity" data-qualified-name="Real Holat Platformasi.UC7" data-source-line="16" id="ent0012"><ellipse cx="395.2981" cy="288.9996" fill="#F1F1F1" rx="95.5481" ry="21.5096" style="stroke:#181818;stroke-width:0.5;"/><text fill="#000000" font-family="sans-serif" font-size="14" lengthAdjust="spacing" textLength="166.1953" x="312.2004" y="293.6481">Surat yuklash yoki olish</text></g><!--entity UC8--><g class="entity" data-qualified-name="Real Holat Platformasi.UC8" data-source-line="17" id="ent0013"><ellipse cx="395.2955" cy="56.9971" fill="#F1F1F1" rx="64.9355" ry="15.3871" style="stroke:#181818;stroke-width:0.5;"/><text fill="#000000" font-family="sans-serif" font-size="14" lengthAdjust="spacing" textLength="93.2969" x="348.647" y="61.6455">Izoh qoldirish</text></g><!--entity UC9--><g class="entity" data-qualified-name="Real Holat Platformasi.UC9" data-source-line="18" id="ent0014"><ellipse cx="395.2969" cy="126.9994" fill="#F1F1F1" rx="86.5469" ry="19.7094" style="stroke:#181818;stroke-width:0.5;"/><text fill="#000000" font-family="sans-serif" font-size="14" lengthAdjust="spacing" textLength="145.8789" x="322.3575" y="131.6478">Tekshiruvni yuborish</text></g><!--entity UC10--><g class="entity" data-qualified-name="Real Holat Platformasi.UC10" data-source-line="19" id="ent0015"><ellipse cx="395.3041" cy="787.9968" fill="#F1F1F1" rx="83.8841" ry="19.1768" style="stroke:#181818;stroke-width:0.5;"/><text fill="#000000" font-family="sans-serif" font-size="14" lengthAdjust="spacing" textLength="139.7471" x="325.4306" y="792.6453">Dashboardni ko'rish</text></g><!--entity UC11--><g class="entity" data-qualified-name="Real Holat Platformasi.UC11" data-source-line="20" id="ent0016"><ellipse cx="395.3047" cy="1118.0029" fill="#F1F1F1" rx="116.8647" ry="25.7729" style="stroke:#181818;stroke-width:0.5;"/><text fill="#000000" font-family="sans-serif" font-size="14" lengthAdjust="spacing" textLength="212.6523" x="288.9786" y="1122.6514">Muammoli maktablarni ko'rish</text></g><!--entity UC12--><g class="entity" data-qualified-name="Real Holat Platformasi.UC12" data-source-line="21" id="ent0017"><ellipse cx="395.2961" cy="867.9972" fill="#F1F1F1" rx="119.0861" ry="26.2172" style="stroke:#181818;stroke-width:0.5;"/><text fill="#000000" font-family="sans-serif" font-size="14" lengthAdjust="spacing" textLength="217.4033" x="286.5944" y="872.6457">Hisobotlarni moderatsiya qilish</text></g><!--entity UC13--><g class="entity" data-qualified-name="Real Holat Platformasi.UC13" data-source-line="22" id="ent0018"><ellipse cx="395.3047" cy="957.0029" fill="#F1F1F1" rx="129.2147" ry="28.2429" style="stroke:#181818;stroke-width:0.5;"/><text fill="#000000" font-family="sans-serif" font-size="14" lengthAdjust="spacing" textLength="238.916" x="275.8467" y="961.6514">Maktab ma'lumotlarini boshqarish</text></g><!--entity UC14--><g class="entity" data-qualified-name="Real Holat Platformasi.UC14" data-source-line="23" id="ent0019"><ellipse cx="395.3017" cy="1038.9983" fill="#F1F1F1" rx="79.3917" ry="18.2783" style="stroke:#181818;stroke-width:0.5;"/><text fill="#000000" font-family="sans-serif" font-size="14" lengthAdjust="spacing" textLength="129.2402" x="330.6815" y="1043.6468">Statistikani ko'rish</text></g><!--entity Citizen--><g class="entity" data-qualified-name="Citizen" data-source-line="5" id="ent0002"><ellipse cx="72.541" cy="555.35" fill="#F1F1F1" rx="8" ry="8" style="stroke:#181818;stroke-width:0.5;"/><path d="M72.541,563.35 L72.541,590.35 M59.541,571.35 L85.541,571.35 M72.541,590.35 L59.541,605.35 M72.541,590.35 L85.541,605.35" fill="none" style="stroke:#181818;stroke-width:0.5;"/><text fill="#000000" font-family="sans-serif" font-size="14" lengthAdjust="spacing" textLength="133.082" x="6" y="619.8451">Fuqaro / O'qituvchi</text></g><!--entity Admin--><g class="entity" data-qualified-name="Admin" data-source-line="6" id="ent0003"><ellipse cx="72.5457" cy="882.35" fill="#F1F1F1" rx="8" ry="8" style="stroke:#181818;stroke-width:0.5;"/><path d="M72.5457,890.35 L72.5457,917.35 M59.5457,898.35 L85.5457,898.35 M72.5457,917.35 L59.5457,932.35 M72.5457,917.35 L85.5457,932.35" fill="none" style="stroke:#181818;stroke-width:0.5;"/><text fill="#000000" font-family="sans-serif" font-size="14" lengthAdjust="spacing" textLength="130.7715" x="7.16" y="946.8451">Admin / Moderator</text></g><!--entity Public--><g class="entity" data-qualified-name="Public" data-source-line="7" id="ent0004"><ellipse cx="72.5431" cy="1022.35" fill="#F1F1F1" rx="8" ry="8" style="stroke:#181818;stroke-width:0.5;"/><path d="M72.5431,1030.35 L72.5431,1057.35 M59.5431,1038.35 L85.5431,1038.35 M72.5431,1057.35 L59.5431,1072.35 M72.5431,1057.35 L85.5431,1072.35" fill="none" style="stroke:#181818;stroke-width:0.5;"/><text fill="#000000" font-family="sans-serif" font-size="14" lengthAdjust="spacing" textLength="85.3262" x="29.88" y="1086.8451">Jamoatchilik</text></g><!--link Citizen to UC1--><g class="link" data-entity-1="ent0002" data-entity-2="ent0006" data-link-type="dependency" data-source-line="26" id="lnk20"><path d="M139.47,548.82 C170.06,533 207.29,515.11 242.08,502 C266.8,492.69 288.7041,486.0838 313.6341,479.5838" fill="none" id="Citizen-to-UC1" style="stroke:#181818;stroke-width:1;"/><polygon fill="#181818" points="319.44,478.07,309.722,476.4701,314.6017,479.3315,311.7403,484.2113,319.44,478.07" style="stroke:#181818;stroke-width:1;"/></g><!--link Citizen to UC2--><g class="link" data-entity-1="ent0002" data-entity-2="ent0007" data-link-type="dependency" data-source-line="27" id="lnk21"><path d="M139.22,576.4 C186.79,570.17 245.7109,562.4597 298.1309,555.5897" fill="none" id="Citizen-to-UC2" style="stroke:#181818;stroke-width:1;"/><polygon fill="#181818" points="304.08,554.81,294.6365,552.0134,299.1224,555.4597,295.6761,559.9456,304.08,554.81" style="stroke:#181818;stroke-width:1;"/></g><!--link Citizen to UC3--><g class="link" data-entity-1="ent0002" data-entity-2="ent0008" data-link-type="dependency" data-source-line="28" id="lnk22"><path d="M139.22,593.19 C186.05,599.03 243.7062,606.2168 295.6962,612.7068" fill="none" id="Citizen-to-UC3" style="stroke:#181818;stroke-width:1;"/><polygon fill="#181818" points="301.65,613.45,293.2148,608.366,296.6885,612.8306,292.2238,616.3044,301.65,613.45" style="stroke:#181818;stroke-width:1;"/></g><!--link Citizen to UC4--><g class="link" data-entity-1="ent0002" data-entity-2="ent0009" data-link-type="dependency" data-source-line="29" id="lnk23"><path d="M139.23,619.83 C169.93,635.26 207.31,652.85 242.08,666 C266.35,675.18 287.667,681.8409 312.187,688.6209" fill="none" id="Citizen-to-UC4" style="stroke:#181818;stroke-width:1;"/><polygon fill="#181818" points="317.97,690.22,310.3615,683.9661,313.1508,688.8875,308.2295,691.6768,317.97,690.22" style="stroke:#181818;stroke-width:1;"/></g><!--link Citizen to UC5--><g class="link" data-entity-1="ent0002" data-entity-2="ent0010" data-link-type="dependency" data-source-line="30" id="lnk24"><path d="M76.03,546.39 C81.95,490.74 101.88,389.65 169.08,344 C196.92,325.09 281.1221,346.2162 338.5721,363.7762" fill="none" id="Citizen-to-UC5" style="stroke:#181818;stroke-width:1;"/><polygon fill="#181818" points="344.31,365.53,336.8723,359.0739,339.5284,364.0685,334.5339,366.7245,344.31,365.53" style="stroke:#181818;stroke-width:1;"/></g><!--link Citizen to UC10--><g class="link" data-entity-1="ent0002" data-entity-2="ent0015" data-link-type="dependency" data-source-line="31" id="lnk25"><path d="M101.99,623.63 C132.38,662.07 184.09,719.83 242.08,752 C265.95,765.24 288.6521,772.4258 314.5721,777.7358" fill="none" id="Citizen-to-UC10" style="stroke:#181818;stroke-width:1;"/><polygon fill="#181818" points="320.45,778.94,312.4359,773.2151,315.5517,777.9365,310.8303,781.0524,320.45,778.94" style="stroke:#181818;stroke-width:1;"/></g><!--link UC5 to UC6--><g class="link" data-entity-1="ent0010" data-entity-2="ent0011" data-link-type="dependency" data-source-line="33" id="lnk26"><path d="M332.38,367.84 C260.84,348.79 159.11,310.89 201.37,256.5 C223.16,228.44 252.5825,215.9495 287.1425,209.8095" fill="none" id="UC5-to-UC6" style="stroke:#181818;stroke-width:1;stroke-dasharray:7,7;"/><polygon fill="#181818" points="293.05,208.76,283.4891,206.396,288.1271,209.6346,284.8885,214.2726,293.05,208.76" style="stroke:#181818;stroke-width:1;"/><text fill="#000000" font-family="sans-serif" font-size="13" lengthAdjust="spacing" textLength="63.0068" x="170.08" y="269.5669">«include»</text></g><!--link UC5 to UC7--><g class="link" data-entity-1="ent0010" data-entity-2="ent0012" data-link-type="dependency" data-source-line="34" id="lnk27"><path d="M395.3,361.82 C395.3,346.76 395.3,332.19 395.3,316.76" fill="none" id="UC5-to-UC7" style="stroke:#181818;stroke-width:1;stroke-dasharray:7,7;"/><polygon fill="#181818" points="395.3,310.76,391.3,319.76,395.3,315.76,399.3,319.76,395.3,310.76" style="stroke:#181818;stroke-width:1;"/><text fill="#000000" font-family="sans-serif" font-size="13" lengthAdjust="spacing" textLength="63.0068" x="352.3" y="340.8869">«include»</text></g><!--link UC5 to UC8--><g class="link" data-entity-1="ent0010" data-entity-2="ent0013" data-link-type="dependency" data-source-line="35" id="lnk28"><path d="M321.14,371.12 C292.88,363.44 262.58,350.34 242.08,328 C188.24,269.32 178.97,229.92 201.37,153.5 C210.8,121.33 214.53,109.11 242.08,90 C267.91,72.09 295.6727,64.4138 324.8927,60.5138" fill="none" id="UC5-to-UC8" style="stroke:#181818;stroke-width:1;stroke-dasharray:7,7;"/><polygon fill="#181818" points="330.84,59.72,321.3899,56.9458,325.8839,60.3815,322.4483,64.8755,330.84,59.72" style="stroke:#181818;stroke-width:1;"/><text fill="#000000" font-family="sans-serif" font-size="13" lengthAdjust="spacing" textLength="63.0068" x="170.08" y="166.5669">«include»</text></g><!--link UC5 to UC9--><g class="link" data-entity-1="ent0010" data-entity-2="ent0014" data-link-type="dependency" data-source-line="36" id="lnk29"><path d="M329.64,395.46 C286.6,400.09 232.69,397.13 201.37,362.5 C191.03,351.07 142.96,264.75 242.08,164 C260.03,145.76 279.4252,137.1294 304.2852,131.9694" fill="none" id="UC5-to-UC9" style="stroke:#181818;stroke-width:1;stroke-dasharray:7,7;"/><polygon fill="#181818" points="310.16,130.75,300.5349,128.6626,305.2643,131.7662,302.1607,136.4956,310.16,130.75" style="stroke:#181818;stroke-width:1;"/><text fill="#000000" font-family="sans-serif" font-size="13" lengthAdjust="spacing" textLength="63.0068" x="170.08" y="358.5669">«include»</text></g><!--link Public to UC10--><g class="link" data-entity-1="ent0004" data-entity-2="ent0015" data-link-type="dependency" data-source-line="38" id="lnk30"><path d="M115.65,1015.18 C152.76,980.29 205.26,924.5 234.08,865 C242.18,848.29 229.22,837.39 242.08,824 C260.24,805.11 280.4451,796.4579 305.9151,791.6279" fill="none" id="Public-to-UC10" style="stroke:#181818;stroke-width:1;"/><polygon fill="#181818" points="311.81,790.51,302.2223,788.2569,306.8975,791.4416,303.7128,796.1168,311.81,790.51" style="stroke:#181818;stroke-width:1;"/></g><!--link Public to UC11--><g class="link" data-entity-1="ent0004" data-entity-2="ent0016" data-link-type="dependency" data-source-line="39" id="lnk31"><path d="M115.47,1060.63 C164.3,1070.67 240.3231,1086.3207 302.7731,1099.1707" fill="none" id="Public-to-UC11" style="stroke:#181818;stroke-width:1;"/><polygon fill="#181818" points="308.65,1100.38,300.6409,1094.6482,303.7526,1099.3723,299.0285,1102.484,308.65,1100.38" style="stroke:#181818;stroke-width:1;"/></g><!--link Admin to UC10--><g class="link" data-entity-1="ent0003" data-entity-2="ent0015" data-link-type="dependency" data-source-line="41" id="lnk32"><path d="M138.23,873.38 C168.89,856.36 206.51,837.26 242.08,824 C269.69,813.71 295.3742,806.942 322.5642,801.092" fill="none" id="Admin-to-UC10" style="stroke:#181818;stroke-width:1;"/><polygon fill="#181818" points="328.43,799.83,318.79,797.8125,323.5419,800.8817,320.4727,805.6336,328.43,799.83" style="stroke:#181818;stroke-width:1;"/></g><!--link Admin to UC12--><g class="link" data-entity-1="ent0003" data-entity-2="ent0017" data-link-type="dependency" data-source-line="42" id="lnk33"><path d="M138.06,903.15 C182.52,897.05 236.5456,889.6352 287.2956,882.6752" fill="none" id="Admin-to-UC12" style="stroke:#181818;stroke-width:1;"/><polygon fill="#181818" points="293.24,881.86,283.78,879.1199,288.2864,882.5394,284.8669,887.0457,293.24,881.86" style="stroke:#181818;stroke-width:1;"/></g><!--link Admin to UC13--><g class="link" data-entity-1="ent0003" data-entity-2="ent0018" data-link-type="dependency" data-source-line="43" id="lnk34"><path d="M138.06,921.05 C180.32,926.98 230.6682,934.0466 279.7182,940.9266" fill="none" id="Admin-to-UC13" style="stroke:#181818;stroke-width:1;"/><polygon fill="#181818" points="285.66,941.76,277.3029,936.5486,280.7085,941.0655,276.1916,944.4711,285.66,941.76" style="stroke:#181818;stroke-width:1;"/></g><!--link Admin to UC14--><g class="link" data-entity-1="ent0003" data-entity-2="ent0019" data-link-type="dependency" data-source-line="44" id="lnk35"><path d="M135.3,950.43 C166.41,968.45 205.25,988.98 242.08,1003 C270.51,1013.82 297.3188,1020.8236 325.0988,1026.6736" fill="none" id="Admin-to-UC14" style="stroke:#181818;stroke-width:1;"/><polygon fill="#181818" points="330.97,1027.91,322.9874,1022.1413,326.0773,1026.8797,321.3389,1029.9696,330.97,1027.91" style="stroke:#181818;stroke-width:1;"/></g><?plantuml-src TPDTRzDG38Rlpw-mUbEusDZQxWjDbQ083QI9QGMkk76IqyJa95xFno13_7USj4sJXjv4Ue-VrxPin-LKFg750YACyzHoA9C56xRmAoElbT4h3vx1KffvICZgs1ENohM-9_5XgfU-CXhgC9QfqKfXx2NBw6DOesLu0r_6Q_BXESve1EXWGPvUTBd3tYK5bKBTSw8jobC3DQyxv3CMZ5xyXl8c-X0YGx5IRL4OFMeqSCS6FJp8PyMsG2S5_oY0u7ICJg1xp3r61YrO7bU_qLD9aFFOaikQnDyMvqDUc3N900IIFbTal3NO6YP30tXSEJBifTAmmhHh-8xZ12MzeJB54eGIpy0owrg-wjnbPCEpO17NXfQxw7BDC6f6cvHgw4VvwZt-b9PCGlN00nO5lzvQBxlMPP1DG1NosWOLvmHizkrSTTbFBvp1circG5lY-bZ3LOYumzrqkGzIB6AqoN0fPxqXDuqRWcAtpg6XjyOxSXmrsn2msDoPesepzxtdVviiS6n2qMwodhTSTSVKs-RIoqavJpaEEvgflqfjRnzEJkRDhVNrv41F3_JiG5ySvZjJIbxXj1QNy1PkRwcCJKZqVBuFN1qBN1yBt1m4rER_srVjwtEbDZzr6-_9ILzE-tBs3m00?></g></svg>